#N canvas 519 23 1063 833 10;
#X obj 307 385 cpole~;
#X obj 35 243 line~;
#X obj 842 102 line~;
#X obj 919 98 line~;
#X obj 451 217 line~;
#X obj 259 233 cos~;
#X obj 316 221 -~ 0.25;
#X obj 315 244 cos~;
#X obj 357 277 cos~;
#X obj 405 257 -~ 0.25;
#X obj 308 266 *~;
#X obj 272 262 *~;
#X obj 371 323 *~;
#X obj 329 323 *~;
#X obj 231 319 cpole~;
#X obj 245 466 /~;
#X obj 244 488 abs~;
#X obj 244 543 *~, f 22;
#X obj 119 87 noise~;
#X obj 176 140 noise~;
#X obj 30 89 *~ 0.1;
#X obj 30 67 vd~ \$0ckpfbdel;
#X obj 184 103 *~ 0.1;
#X obj 174 78 vd~ \$0ckpfbdel;
#X floatatom 34 11 5 0 0 0 - - -;
#X floatatom 225 32 5 0 0 0 - - -;
#X obj 236 671 dac~;
#X floatatom 35 199 5 0 0 0 - - -;
#X floatatom 844 59 5 0 0 0 - - -;
#X floatatom 919 55 5 0 0 0 - - -;
#X floatatom 443 135 5 0 0 0 - - -;
#X obj 843 80 pack f 4040;
#X floatatom 486 277 5 0 0 0 - - -;
#X obj 357 686 delwrite~ \$0ckpfbdel 4000;
#X obj 492 73 tgl 15 0 empty empty empty 17 7 0 10 -262144 -1 -1 0
1;
#X obj 361 57 readsf~ 2;
#X msg 620 88 open strummedCheese.aif \, 1;
#X msg 635 158 open tuningIN.aif \, 1;
#X msg 586 239 open whistleEpisode_liveSolo_441.wav \, 1;
#X obj 690 381 tgl 15 0 empty empty empty 17 7 0 10 -262144 -1 -1 0
1;
#X obj 590 370 readsf~ 2;
#X msg 571 341 open bluntedShards.aif \, 1;
#X msg 818 396 open strummedCheese.aif \, 1;
#X msg 833 466 open tuningIN.aif \, 1;
#X obj 35 220 pack f 2345;
#X obj 920 75 pack f 2345;
#X obj 433 168 pack f 23467;
#X obj 597 277 cpole~;
#X obj 543 451 cos~;
#X obj 588 435 -~ 0.25;
#X obj 587 458 cos~;
#X obj 580 480 *~;
#X obj 544 476 *~;
#X floatatom 652 457 5 0 0 0 - - -;
#X obj 401 277 cos~;
#X obj 840 129 osc~ 0.1;
#X obj 841 176 +~ 23;
#X obj 908 169 +~ 23;
#X obj 449 386 +~ 23;
#X obj 907 148 *~ 1234;
#X obj 840 155 *~ 214;
#X obj 447 338 osc~ 0.123;
#X obj 448 364 *~ 1234;
#X obj 907 122 osc~ 0.003;
#X obj 246 568 hip~ 10;
#X obj 121 114 *~ 0.001;
#X obj 245 513 clip~ 0 1;
#X obj 203 427 sig~ 1;
#X obj 39 397 line~;
#X floatatom 39 353 5 0 0 0 - - -;
#X obj 39 374 pack f 2345;
#X obj 41 550 line~;
#X floatatom 41 506 5 0 0 0 - - -;
#X obj 41 527 pack f 2345;
#X obj 125 641 line~;
#X floatatom 125 597 5 0 0 0 - - -;
#X obj 125 618 pack f 2345;
#X obj 35 314 +~ 2;
#X obj 37 693 +~ 2;
#X obj 125 712 +~ 1;
#X obj 105 36 + 123;
#X obj 247 607 lop~ 10000;
#X text 483 561 delayTime fbLevel osc1rate osc1Time osc2Rate osc2Time
osc3Rate osc3Time osc4rate osc4time \, oscLevel \, soundFile1 soundFile2
sfPoleLevel;
#X obj 796 280 unpack 1 1 1 1 1 1 1 1 1 1 1 s s 1;
#X obj 514 513 tgl 15 0 empty empty empty 17 7 0 10 -262144 -1 -1 0
1;
#X msg 783 546 open \$1 \, 1;
#X msg 373 33 open \$1 \, 1;
#X msg 630 633 56 0.87 0.5 34 0.1 345 0.9 23344 0.1 1234 0.9 whistleEpisode_liveSolo_441.wav
whistleEpisode_liveSolo_441.wav 0.1;
#X msg 642 690 4000 0.1 0.5 34 0.1 345 0.9 23344 0.1 1234 0.233 bluntedShards.aif
strummedCheese.aif 0.67;
#X msg 608 601 20 0.1 0.2 5000 0.6 23 0.8 234 0.7 2345 0.87 bluntedShards.aif
whistleEpisode_liveSolo_441.wav 0.7;
#X msg 655 728 2500 0.76 0.5 34 0.1 345 0.9 123 0.1 1234 0.1 strummedCheese.aif
bluntedShards.aif 0.9;
#X obj 175 763 v soundFile1;
#X obj 256 763 v soundFile2;
#X obj 384 765 list-interp;
#X obj 38 410 osc~ 0.001;
#X obj 55 265 osc~ 0.001;
#X obj 36 594 osc~ 0.001;
#X obj 124 665 osc~ 0.001;
#X obj 36 772 samphold~;
#X obj 36 741 noise~;
#X obj 216 734 samphold~;
#X obj 216 703 noise~;
#X obj 131 411 samphold~;
#X obj 131 380 noise~;
#X obj 19 171 samphold~;
#X obj 19 140 noise~;
#X obj 72 143 osc~ 0.2;
#X obj 36 660 *~ 1245;
#X obj 33 292 *~ 12566;
#X obj 124 691 *~ 4536;
#X obj 178 165 *~ 0.001;
#X obj 89 744 osc~ 2;
#X obj 270 706 osc~ 3;
#X obj 184 383 osc~ 20;
#X obj 39 468 +~ 234;
#X obj 247 636 *~ 0.2;
#X obj 38 447 *~ 324;
#X connect 0 0 15 1;
#X connect 0 0 17 1;
#X connect 0 1 15 1;
#X connect 0 1 17 1;
#X connect 1 0 95 0;
#X connect 2 0 55 0;
#X connect 3 0 63 0;
#X connect 4 0 61 0;
#X connect 5 0 11 0;
#X connect 6 0 7 0;
#X connect 7 0 10 0;
#X connect 8 0 13 0;
#X connect 9 0 54 0;
#X connect 10 0 14 3;
#X connect 11 0 14 2;
#X connect 12 0 0 3;
#X connect 13 0 0 2;
#X connect 14 0 0 0;
#X connect 14 1 0 1;
#X connect 15 0 16 0;
#X connect 16 0 66 0;
#X connect 17 0 33 0;
#X connect 17 0 64 0;
#X connect 18 0 65 0;
#X connect 19 0 110 0;
#X connect 20 0 14 1;
#X connect 20 0 14 0;
#X connect 21 0 20 0;
#X connect 22 0 14 1;
#X connect 23 0 22 0;
#X connect 24 0 21 0;
#X connect 24 0 80 0;
#X connect 25 0 20 1;
#X connect 25 0 22 1;
#X connect 27 0 44 0;
#X connect 28 0 31 0;
#X connect 29 0 45 0;
#X connect 30 0 46 0;
#X connect 31 0 2 0;
#X connect 32 0 12 1;
#X connect 32 0 10 1;
#X connect 32 0 11 1;
#X connect 32 0 13 1;
#X connect 34 0 35 0;
#X connect 35 0 47 0;
#X connect 35 1 47 1;
#X connect 36 0 35 0;
#X connect 37 0 35 0;
#X connect 38 0 35 0;
#X connect 39 0 40 0;
#X connect 40 0 48 0;
#X connect 40 1 49 0;
#X connect 41 0 40 0;
#X connect 42 0 40 0;
#X connect 43 0 40 0;
#X connect 44 0 1 0;
#X connect 45 0 3 0;
#X connect 46 0 4 0;
#X connect 47 0 14 0;
#X connect 47 1 14 1;
#X connect 48 0 52 0;
#X connect 49 0 50 0;
#X connect 50 0 51 0;
#X connect 51 0 47 3;
#X connect 52 0 47 2;
#X connect 53 0 51 1;
#X connect 53 0 52 1;
#X connect 54 0 12 0;
#X connect 55 0 60 0;
#X connect 59 0 57 0;
#X connect 60 0 56 0;
#X connect 61 0 62 0;
#X connect 62 0 58 0;
#X connect 63 0 59 0;
#X connect 64 0 81 0;
#X connect 65 0 14 0;
#X connect 66 0 17 0;
#X connect 67 0 15 0;
#X connect 68 0 94 0;
#X connect 69 0 70 0;
#X connect 70 0 68 0;
#X connect 71 0 96 0;
#X connect 72 0 73 0;
#X connect 73 0 71 0;
#X connect 74 0 97 0;
#X connect 75 0 76 0;
#X connect 76 0 74 0;
#X connect 77 0 5 0;
#X connect 78 0 8 0;
#X connect 79 0 9 0;
#X connect 80 0 23 0;
#X connect 81 0 115 0;
#X connect 83 0 24 0;
#X connect 83 1 25 0;
#X connect 83 2 27 0;
#X connect 83 3 44 1;
#X connect 83 4 69 0;
#X connect 83 5 70 1;
#X connect 83 6 72 0;
#X connect 83 7 73 1;
#X connect 83 8 75 0;
#X connect 83 9 76 1;
#X connect 83 10 32 0;
#X connect 83 11 86 0;
#X connect 83 12 85 0;
#X connect 83 13 53 0;
#X connect 85 0 40 0;
#X connect 86 0 35 0;
#X connect 87 0 83 0;
#X connect 88 0 83 0;
#X connect 89 0 83 0;
#X connect 90 0 83 0;
#X connect 95 0 108 0;
#X connect 96 0 107 0;
#X connect 97 0 109 0;
#X connect 99 0 98 0;
#X connect 101 0 100 0;
#X connect 102 0 116 0;
#X connect 103 0 102 0;
#X connect 105 0 104 0;
#X connect 106 0 104 1;
#X connect 107 0 78 0;
#X connect 108 0 77 0;
#X connect 109 0 79 0;
#X connect 110 0 14 1;
#X connect 111 0 98 1;
#X connect 112 0 100 1;
#X connect 113 0 102 1;
#X connect 114 0 6 0;
#X connect 115 0 26 1;
#X connect 115 0 26 0;
#X connect 116 0 114 0;
