#N canvas 247 120 1035 758 10;
#X obj 104 226 array get \$0_melodyTable;
#N canvas 0 23 532 286 loadMelody 1;
#X msg 194 90 read \$1;
#X obj 194 69 makefilename melodyArray/%s;
#X obj 193 27 list prepend symbol;
#X obj 194 47 list trim;
#X obj 194 116 array define -k -yrange -65 65 \$0_melodyTable;
#A 0 -13 -19 -19 -19 -19 -25 -25 -27 -29 -31 -32 -34 -37 -37 -37 -37
-44 -44 -43 -43 -28 -28 -30 -31 -32 -33 -34 -34 -36 -44 -46 -58 -58
-58 -58 -58 -36 -32 -22 -20 -19 -17 -7 0 -1 -3 -5 -5 -5 -7 -7 -13 -13
-15 -17 -19 -36 -36 -36 -36 -41 -49 -49 -49 -49 -55 2 -3 -3 -3 -3 -3
-3 -3 -3 -3 -3 -3 -3 -3 -3 -3 -3 -3 -3 -3 -3 -3 -3 -3 -3 -3 -3 -3 -3
-3 -3 -3 -3 -3;
#X obj 193 6 inlet melodyArrayName;
#X obj 178 185 text size \$0_melodyAsText;
#X obj 178 206 outlet melodySize;
#X obj 178 140 t b;
#X msg 178 163 0;
#X obj 20 117 text define \$0_melodyAsText;
#X connect 0 0 4 0;
#X connect 0 0 10 0;
#X connect 1 0 0 0;
#X connect 2 0 3 0;
#X connect 3 0 1 0;
#X connect 5 0 2 0;
#X connect 6 0 7 0;
#X connect 8 0 9 0;
#X connect 9 0 6 0;
#X connect 10 1 8 0;
#X restore 221 124 pd loadMelody;
#X obj 104 175 * 1, f 20;
#X obj 102 54 inlet parametersIn;
#X floatatom 104 254 5 0 0 0 - - -;
#X obj 419 145 * 25, f 10;
#X obj 419 167 i;
#X obj 419 188 change;
#X obj 419 210 / 25, f 14;
#X obj 476 126 t f f;
#X msg 391 54 heading \$1;
#X floatatom 391 35 5 0 0 0 - - -;
#X obj 102 82 route heading melodyName nParts, f 94;
#X floatatom 54 196 5 0 0 0 - - -;
#N canvas 126 41 1289 837 polySynth 0;
#X obj 29 84 pack 0 0;
#X obj 28 140 pack 0 0 0;
#X obj 29 30 inlet;
#X obj 74 29 inlet;
#X obj 28 111 poly 4 1, f 10;
#X text 33 11 pitch;
#X text 72 9 gate;
#X obj 26 168 route 1 2 3 4 5 6;
#X obj 74 59 / 128;
#X connect 0 0 4 0;
#X connect 1 0 7 0;
#X connect 2 0 0 0;
#X connect 3 0 8 0;
#X connect 4 0 1 0;
#X connect 4 1 1 1;
#X connect 4 2 1 2;
#X connect 8 0 0 1;
#X restore 355 326 pd polySynth;
#X obj 163 284 mtof;
#X obj 163 351 osc~;
#X obj 163 371 *~ 0.1;
#X obj 335 668 dac~;
#X obj 163 327 line~;
#X msg 163 306 \$1 12;
#X obj 163 394 *~, f 13;
#X obj 238 354 vline~;
#X msg 466 55 nParts \$1;
#X floatatom 467 35 5 0 0 0 - - -;
#X floatatom 206 287 5 0 0 0 - - -;
#N canvas 0 23 897 542 reonantBandPass 0;
#X obj 23 233 *;
#X obj -85 483 *~;
#X obj -142 87 log;
#X obj -147 142 *;
#X obj -150 116 t f f;
#X obj 85 157 pow -1;
#X obj 86 135 * -1;
#X obj 63 104 t f f;
#X obj 47 190 +;
#X obj 20 149 clip 0 16;
#X obj -211 198 *;
#X obj -165 257 *;
#X obj -139 229 float;
#X obj -214 173 t f f b;
#X obj -372 170 inlet~;
#X obj 92 54 inlet;
#X obj -67 518 outlet~;
#X obj -249 62 inlet;
#X text -246 45 level (0..1);
#X obj -107 37 inlet;
#X text 90 39 ratio;
#X text -121 19 res/decay (1..10000);
#X obj -320 98 inlet;
#X text -322 79 freq;
#X obj -63 433 vcf~ 1;
#X obj -38 483 line~;
#X msg 39 460 \$1 5;
#X connect 0 0 24 1;
#X connect 1 0 16 0;
#X connect 2 0 4 0;
#X connect 3 0 12 0;
#X connect 4 0 3 0;
#X connect 4 1 3 1;
#X connect 5 0 8 1;
#X connect 6 0 5 0;
#X connect 7 0 9 0;
#X connect 7 1 6 0;
#X connect 8 0 0 1;
#X connect 9 0 8 0;
#X connect 10 0 11 0;
#X connect 11 0 26 0;
#X connect 12 0 11 1;
#X connect 13 0 10 0;
#X connect 13 1 10 1;
#X connect 13 2 12 0;
#X connect 14 0 24 0;
#X connect 15 0 7 0;
#X connect 17 0 13 0;
#X connect 19 0 2 0;
#X connect 19 0 24 2;
#X connect 22 0 0 0;
#X connect 24 0 1 0;
#X connect 25 0 1 1;
#X connect 26 0 25 0;
#X restore 717 416 pd reonantBandPass;
#X obj 635 318 noise~;
#X obj 734 354 line~;
#X obj 736 306 float;
#X obj 712 259 t b b f;
#X obj 721 385 *~;
#X obj 699 222 inlet;
#X text 694 205 trig 0..1;
#X floatatom 800 367 5 0 0 0 - - -;
#X obj 163 261 + 60;
#X floatatom 285 162 5 0 0 0 - - -;
#X floatatom 842 379 5 0 0 0 - - -;
#X obj 807 241 random 1000;
#X floatatom 807 283 5 0 0 0 - - -;
#X obj 807 220 t b;
#X obj 807 262 * 0.001;
#X msg 239 332 \$1 10 \, 0 2000 200;
#X msg 220 54 melodyName simpleBass.txt;
#X floatatom 228 252 5 0 0 0 - - -;
#X msg 694 302 0 345;
#X floatatom 368 174 5 0 0 0 - - -;
#X obj 344 496 delwrite~ melody 20000;
#X obj 166 553 delread4~ melody;
#X obj 166 532 line~;
#X obj 168 512 pack 1 222;
#X obj 205 595 *~ 0.2;
#X floatatom 169 475 5 0 0 0 - - -;
#X connect 0 0 4 0;
#X connect 1 0 2 1;
#X connect 1 0 36 0;
#X connect 2 0 0 0;
#X connect 2 0 13 0;
#X connect 3 0 12 0;
#X connect 4 0 35 0;
#X connect 5 0 6 0;
#X connect 5 0 46 0;
#X connect 6 0 7 0;
#X connect 7 0 8 0;
#X connect 8 0 40 0;
#X connect 9 0 5 1;
#X connect 9 1 8 1;
#X connect 10 0 12 0;
#X connect 11 0 10 0;
#X connect 12 0 2 0;
#X connect 12 0 5 0;
#X connect 12 1 1 0;
#X connect 12 2 9 0;
#X connect 15 0 20 0;
#X connect 15 0 26 1;
#X connect 16 0 17 0;
#X connect 17 0 21 0;
#X connect 19 0 16 0;
#X connect 20 0 19 0;
#X connect 21 0 18 0;
#X connect 21 0 18 1;
#X connect 21 0 47 0;
#X connect 22 0 21 1;
#X connect 23 0 12 0;
#X connect 24 0 23 0;
#X connect 26 0 18 0;
#X connect 26 0 18 1;
#X connect 26 0 47 0;
#X connect 27 0 31 0;
#X connect 28 0 31 1;
#X connect 29 0 28 0;
#X connect 30 0 45 0;
#X connect 30 1 29 0;
#X connect 30 2 29 1;
#X connect 31 0 26 0;
#X connect 32 0 30 0;
#X connect 34 0 26 3;
#X connect 35 0 15 0;
#X connect 35 0 25 0;
#X connect 37 0 26 4;
#X connect 38 0 41 0;
#X connect 40 0 38 0;
#X connect 41 0 30 0;
#X connect 41 0 26 2;
#X connect 41 0 39 0;
#X connect 41 0 42 0;
#X connect 42 0 22 0;
#X connect 43 0 12 0;
#X connect 44 0 35 1;
#X connect 45 0 28 0;
#X connect 48 0 51 0;
#X connect 48 0 18 1;
#X connect 48 0 18 0;
#X connect 49 0 48 0;
#X connect 50 0 49 0;
#X connect 51 0 47 0;
#X connect 52 0 50 0;
