#N canvas 2004 94 1253 855 10;
#X obj 438 157 tgl 15 0 empty empty empty 17 7 0 10 -262144 -1 -1 1
1;
#X text 26 12 on_off compassReceive name instance of the patch from
the computer number compass calibrate send compass to masterRouter
;
#X obj 333 246 list prepend send;
#X obj 333 271 list trim;
#X obj 333 220 oscformat id_#1;
#X obj 333 195 list prepend on;
#X obj 438 56 oscparse;
#X obj 438 78 list trim;
#X floatatom 505 166 5 0 0 0 - - -;
#X floatatom 590 156 5 0 0 0 - - -;
#X floatatom 667 159 5 0 0 0 - - -;
#X floatatom 741 159 5 0 0 0 - - -;
#X floatatom 820 157 5 0 0 0 - - -;
#X obj 916 161 bng 15 250 50 0 empty empty empty 17 7 0 10 -262144
-1 -1;
#X obj 437 195 v on;
#X obj 741 196 v LFfilter;
#N canvas 0 203 921 651 fetch 0;
#X obj 74 122 v heading;
#X obj 187 118 v highPass;
#X obj 301 120 v lowPass;
#X obj 415 123 v LFfilter;
#X obj 529 123 v masterGain;
#X obj 74 60 inlet;
#X obj 74 91 t b b b b b b b, f 98;
#X obj 257 374 list prepend send;
#X obj 257 399 list trim;
#X obj 187 205 list prepend highPass;
#X obj 74 150 list prepend heading;
#X obj 300 174 list prepend lowPass;
#X obj 415 148 list prepend LFfilter;
#X obj 529 171 list prepend masterGain;
#X msg 389 400 connect localhost 2345;
#X obj 257 462 netsend -u -b;
#X obj 389 373 loadbang;
#X obj 257 348 oscformat one;
#X connect 0 0 10 0;
#X connect 1 0 9 0;
#X connect 2 0 11 0;
#X connect 3 0 12 0;
#X connect 4 0 13 0;
#X connect 5 0 6 0;
#X connect 6 0 0 0;
#X connect 6 1 1 0;
#X connect 6 2 2 0;
#X connect 6 3 3 0;
#X connect 6 4 4 0;
#X connect 7 0 8 0;
#X connect 8 0 15 0;
#X connect 9 0 17 0;
#X connect 10 0 17 0;
#X connect 11 0 17 0;
#X connect 12 0 17 0;
#X connect 13 0 17 0;
#X connect 14 0 15 0;
#X connect 16 0 14 0;
#X connect 17 0 7 0;
#X restore 916 196 pd fetch;
#X obj 499 197 v masterGain;
#X obj 820 196 v heading;
#X obj 438 124 route on masterGain lowPass highPass LFfilter heading
fetch, f 72;
#X obj 590 196 v lowPass;
#X obj 667 197 v highPass;
#X obj 974 158 print;
#X obj 438 32 netreceive -u -b 2346;
#X obj 25 84 print;
#X obj 438 101 route two;
#X obj 25 56 r stats;
#X obj 522 322 dac~ 1 2;
#X obj 522 293 ike_core_grainPlayer voice_02, f 39;
#N canvas 274 23 1335 855 grainGunk 0;
#X obj 9 651 ike_core_grainPlayer voice_01, f 39;
#X msg 23 422 eventDuration \$1;
#X floatatom 22 403 5 0 0 0 - - -;
#X msg 37 467 subDivisions \$1;
#X floatatom 37 445 5 0 0 0 - - -;
#X msg 11 378 gain \$1;
#X floatatom 12 358 5 0 0 0 - - -;
#X msg 47 506 grainPitch \$1;
#X floatatom 46 485 5 0 0 0 - - -;
#X floatatom 55 525 5 0 0 0 - - -;
#X msg 55 548 windowSelect \$1;
#X msg 20 197 windowCollection.wav;
#X obj 20 97 loadbang;
#X obj 20 121 t b b b b b b;
#X obj 9 680 dac~ 1 2;
#X obj 466 435 array define -yrange -24 24 pitchWonk;
#X obj 466 454 array define -yrange 1 32 subDivWonk;
#X obj 466 472 array define -yrange 0 1 gainWonk;
#X obj 466 490 array define -yrange 0 1 positionWonk;
#X obj 752 404 *~ 100;
#X obj 752 425 tabread~ pitchWonk;
#X obj 752 448 expr~ exp(0.057762265 * $v1);
#X obj 749 502 *~ 100;
#X obj 750 523 tabread4~ positionWonk;
#X obj 752 551 *~ 100;
#X obj 755 591 tabread~ subDivWonk;
#X obj 773 652 *~ 100;
#X obj 780 807 *~;
#X obj 773 673 tabread4~ gainWonk;
#X obj 773 769 samphold~;
#X obj 293 542 tabread pitchWonk;
#X obj 311 435 tabread positionWonk;
#X obj 327 282 tabread subDivWonk;
#X obj 122 355 tabread gainWonk;
#X floatatom 159 261 5 0 0 0 - - -;
#X obj 160 296 / 360;
#X obj 159 316 * 100;
#X obj 466 509 array define -yrange 0 13 windowWonk;
#X obj 175 540 change;
#X obj 175 488 tabread windowWonk;
#X obj 176 511 i;
#X obj 331 339 change;
#X obj 348 309 i;
#X msg 404 641 eventDuration \$1;
#X floatatom 403 622 5 0 0 0 - - -;
#X msg 418 686 subDivisions \$1;
#X floatatom 418 664 5 0 0 0 - - -;
#X msg 392 597 gain \$1;
#X floatatom 393 577 5 0 0 0 - - -;
#X msg 428 725 grainPitch \$1;
#X floatatom 427 704 5 0 0 0 - - -;
#X floatatom 436 744 5 0 0 0 - - -;
#X msg 436 767 windowSelect \$1;
#X obj 390 899 dac~ 1 2;
#X obj 390 870 ike_core_grainPlayer voice_02, f 39;
#X obj 321 488 * 3;
#X msg 478 809 sampleName bluntedShards.aif;
#X obj 367 655 * 0.5;
#X obj 20 217 ike_core_soundDef windows;
#X obj 313 597 i;
#X obj 319 573 change;
#X msg 97 590 sampleName trumpetCall_02.L.wav;
#X obj 314 460 * 45678;
#X obj 536 178 ike_core_soundDef trumpet_01;
#X msg 536 158 trumpetCall_02.L.wav;
#X obj 536 200 v trumpet_01-size;
#X obj 483 335 phasor~;
#X obj 540 304 / 1, f 8;
#X msg 540 274 1000;
#X obj 544 249 t b f f, f 45;
#X obj 550 349 *~;
#X obj 551 382 tabread4~ trumpet_01;
#X obj 543 411 dac~;
#X floatatom 541 326 5 0 0 0 - - -;
#X obj 614 356 env~;
#X floatatom 614 377 5 0 0 0 - - -;
#X floatatom 800 288 5 0 0 0 - - -;
#X connect 0 0 14 0;
#X connect 0 0 14 1;
#X connect 1 0 0 0;
#X connect 2 0 1 0;
#X connect 3 0 0 0;
#X connect 4 0 3 0;
#X connect 5 0 0 0;
#X connect 6 0 5 0;
#X connect 7 0 0 0;
#X connect 8 0 7 0;
#X connect 9 0 10 0;
#X connect 10 0 0 0;
#X connect 11 0 58 0;
#X connect 12 0 13 0;
#X connect 13 0 11 0;
#X connect 19 0 20 0;
#X connect 20 0 21 0;
#X connect 22 0 23 0;
#X connect 24 0 25 0;
#X connect 26 0 28 0;
#X connect 28 0 29 0;
#X connect 29 0 27 1;
#X connect 30 0 60 0;
#X connect 31 0 62 0;
#X connect 32 0 42 0;
#X connect 33 0 6 0;
#X connect 33 0 48 0;
#X connect 34 0 35 0;
#X connect 35 0 36 0;
#X connect 36 0 33 0;
#X connect 36 0 32 0;
#X connect 36 0 30 0;
#X connect 36 0 31 0;
#X connect 36 0 39 0;
#X connect 38 0 9 0;
#X connect 38 0 51 0;
#X connect 39 0 40 0;
#X connect 40 0 38 0;
#X connect 41 0 4 0;
#X connect 41 0 46 0;
#X connect 42 0 41 0;
#X connect 43 0 54 0;
#X connect 44 0 43 0;
#X connect 45 0 54 0;
#X connect 46 0 45 0;
#X connect 47 0 54 0;
#X connect 48 0 47 0;
#X connect 49 0 54 0;
#X connect 50 0 49 0;
#X connect 51 0 52 0;
#X connect 52 0 54 0;
#X connect 54 0 53 1;
#X connect 55 0 44 0;
#X connect 56 0 54 0;
#X connect 57 0 50 0;
#X connect 59 0 57 0;
#X connect 59 0 8 0;
#X connect 60 0 59 0;
#X connect 61 0 0 0;
#X connect 62 0 2 0;
#X connect 62 0 55 0;
#X connect 63 0 65 0;
#X connect 64 0 63 0;
#X connect 65 0 69 0;
#X connect 66 0 70 0;
#X connect 67 0 73 0;
#X connect 68 0 67 0;
#X connect 69 0 68 0;
#X connect 69 1 67 1;
#X connect 69 2 70 1;
#X connect 69 2 76 0;
#X connect 70 0 71 0;
#X connect 70 0 74 0;
#X connect 71 0 72 0;
#X connect 71 0 72 1;
#X connect 73 0 66 0;
#X connect 74 0 75 0;
#X restore 24 110 pd grainGunk;
#X floatatom 116 403 5 0 0 0 - - -;
#X text 289 56 chris Emry;
#X obj 243 704 switch~;
#X obj 31 668 ike_gain masterGain, f 36;
#X obj 31 700 dac~, f 18;
#X obj 244 628 tgl 15 0 empty empty empty 17 7 0 10 -262144 -1 -1 1
1;
#X floatatom 173 628 5 0 1 0 - - -;
#X floatatom 106 607 5 0 0 0 - - -;
#X obj 31 629 ike_crossover;
#X obj 31 575 ike_testSignal;
#X obj 31 548 tgl 15 0 empty empty empty 17 7 0 10 -262144 -1 -1 1
1;
#X obj 307 373 v crossoverFrequency;
#X obj 441 373 v masterGain;
#X obj 308 340 bng 15 250 50 0 empty empty empty 17 7 0 10 -262144
-1 -1;
#X floatatom 307 394 5 0 0 0 - - -;
#X floatatom 441 394 5 0 0 0 - - -;
#X obj 116 441 % 360;
#N canvas 372 67 1415 855 rhythmPlayer 1;
#X obj 104 462 * 511;
#X obj 104 485 sig~;
#X obj 29 540 +~, f 13;
#X obj 104 436 change;
#X obj 29 391 phasor~;
#X obj 30 561 tabread4~ windows;
#X obj 28 362 / 1, f 8;
#X msg 29 335 1000;
#X obj 29 303 t b f f, f 16;
#X floatatom 29 276 5 0 0 0 - - -;
#X obj 13 11 inlet;
#X obj 30 826 outlet~;
#X obj 47 71 inlet heading;
#X obj 47 95 spigot, f 16;
#X obj 13 39 t float float float, f 200;
#X obj 30 794 ike_gain_mono rhythmGain, f 199;
#X floatatom 104 414 5 0 0 0 - - -;
#X obj 219 551 *~ 0.2;
#X obj 30 587 *~, f 32;
#X floatatom 625 481 5 0 0 0 - - -;
#X obj 101 11 tgl 15 0 empty empty empty 17 7 0 10 -262144 -1 -1 1
1;
#X obj 104 509 samphold~ 0;
#X obj 29 417 *~ 510;
#X obj 29 444 +~ 1;
#X obj 47 117 / 360;
#X obj 47 138 * 500;
#X obj 47 161 + 20;
#X obj 244 473 readsf~;
#X msg 240 430 open trumpetCall_02.L.wav \, 1;
#X connect 0 0 1 0;
#X connect 1 0 21 0;
#X connect 2 0 5 0;
#X connect 3 0 0 0;
#X connect 4 0 21 1;
#X connect 4 0 22 0;
#X connect 5 0 18 0;
#X connect 6 0 4 0;
#X connect 7 0 6 0;
#X connect 8 0 7 0;
#X connect 8 1 6 1;
#X connect 9 0 8 0;
#X connect 10 0 14 0;
#X connect 12 0 13 0;
#X connect 13 0 24 0;
#X connect 14 0 13 1;
#X connect 14 2 15 2;
#X connect 15 0 11 0;
#X connect 16 0 3 0;
#X connect 17 0 18 1;
#X connect 18 0 15 0;
#X connect 19 0 15 1;
#X connect 20 0 14 0;
#X connect 21 0 2 1;
#X connect 22 0 23 0;
#X connect 23 0 2 0;
#X connect 24 0 25 0;
#X connect 25 0 26 0;
#X connect 26 0 9 0;
#X connect 27 0 18 1;
#X connect 28 0 27 0;
#X restore 177 534 pd rhythmPlayer;
#X obj 174 512 tgl 15 0 empty empty empty 17 7 0 10 -262144 -1 -1 0
1;
#X obj 211 585 env~;
#X floatatom 211 606 5 0 0 0 - - -;
#X connect 0 0 5 0;
#X connect 0 0 14 0;
#X connect 0 0 48 0;
#X connect 2 0 3 0;
#X connect 4 0 2 0;
#X connect 5 0 4 0;
#X connect 6 0 7 0;
#X connect 7 0 25 0;
#X connect 8 0 17 0;
#X connect 8 0 36 0;
#X connect 9 0 20 0;
#X connect 10 0 21 0;
#X connect 11 0 15 0;
#X connect 12 0 18 0;
#X connect 13 0 16 0;
#X connect 19 0 0 0;
#X connect 19 1 8 0;
#X connect 19 2 9 0;
#X connect 19 3 10 0;
#X connect 19 4 11 0;
#X connect 19 5 12 0;
#X connect 19 6 13 0;
#X connect 19 7 22 0;
#X connect 23 0 6 0;
#X connect 25 0 19 0;
#X connect 26 0 24 0;
#X connect 28 0 27 1;
#X connect 30 0 46 0;
#X connect 33 0 34 0;
#X connect 33 1 34 1;
#X connect 33 2 32 0;
#X connect 35 0 33 3;
#X connect 36 0 33 2;
#X connect 37 0 38 1;
#X connect 38 0 33 0;
#X connect 38 1 33 1;
#X connect 39 0 38 0;
#X connect 40 0 39 0;
#X connect 41 0 44 0;
#X connect 42 0 45 0;
#X connect 43 0 41 0;
#X connect 43 0 42 0;
#X connect 46 0 39 1;
#X connect 46 0 47 1;
#X connect 47 0 38 0;
#X connect 47 0 49 0;
#X connect 48 0 47 0;
#X connect 49 0 50 0;
