#N canvas 0 23 603 382 10;
#X obj 189 239 line~;
#X obj 280 198 sel 1 0, f 16;
#X obj 326 226 delay 200, f 11;
#X msg 326 255 0;
#X obj 18 265 *~, f 29;
#X msg 280 245 1;
#X obj 18 293 outlet~ toSoundSystem;
#X obj 190 152 * 1, f 8;
#X obj 190 58 t b float float;
#X obj 190 122 f;
#X obj 190 28 inlet on;
#X obj 325 27 inlet interpTime;
#X obj 449 26 inlet level;
#X obj 189 193 pack f f;
#X obj 18 228 inlet~ soundIn;
#X obj 280 288 outlet toSwitch~;
#X connect 0 0 4 1;
#X connect 1 0 5 0;
#X connect 1 1 2 0;
#X connect 2 0 3 0;
#X connect 3 0 15 0;
#X connect 4 0 6 0;
#X connect 5 0 15 0;
#X connect 7 0 13 0;
#X connect 8 0 9 0;
#X connect 8 1 7 1;
#X connect 8 2 1 0;
#X connect 9 0 7 0;
#X connect 10 0 8 0;
#X connect 11 0 2 1;
#X connect 11 0 13 1;
#X connect 12 0 9 1;
#X connect 12 0 13 0;
#X connect 13 0 0 0;
#X connect 14 0 4 0;
