#N canvas 362 36 450 300 10;
#X obj 121 178 ike_core_enableLevel;
#X obj 121 138 noise~;
#X obj 184 133 tgl 15 0 empty empty empty 17 7 0 10 -262144 -1 -1 1
1;
#X floatatom 217 130 5 0 0 0 - - -;
#X floatatom 255 134 5 0 0 0 - - -;
#X connect 1 0 0 0;
#X connect 2 0 0 1;
#X connect 3 0 0 2;
#X connect 4 0 0 3;
