#N canvas 0 23 971 856 10;
#X obj 117 448 osc~;
#X obj 117 472 *~, f 6;
#X obj 163 445 line~;
#X obj 116 419 line~;
#X msg 114 397 \$1 12;
#X obj 113 365 spigot;
#X obj 157 340 > 0.1;
#X obj 117 499 outlet~ sound;
#X obj 92 250 inlet fromSigmund;
#X obj 101 286 unpack 1 2 3 4, f 18;
#X obj 98 329 * 1;
#X obj 299 246 inlet pitch;
#X obj 376 248 inlet triggerThreshold;
#X msg 162 423 \$1 1;
#X connect 0 0 1 0;
#X connect 1 0 7 0;
#X connect 2 0 1 1;
#X connect 3 0 0 0;
#X connect 4 0 3 0;
#X connect 5 0 4 0;
#X connect 6 0 5 1;
#X connect 8 0 9 0;
#X connect 9 0 10 0;
#X connect 9 1 6 0;
#X connect 9 1 13 0;
#X connect 10 0 5 0;
#X connect 11 0 10 1;
#X connect 12 0 6 1;
#X connect 13 0 2 0;
