#N canvas 290 94 1109 628 10;
#X obj 318 149 ike_rhythm windoz, f 34;
#X msg 318 117 duration \$1;
#X msg 422 117 parts \$1;
#X msg 491 116 segments \$1;
#X msg 578 119 window \$1;
#X floatatom 318 85 5 0 0 0 - - -;
#X floatatom 422 89 5 0 0 0 - - -;
#X floatatom 492 89 5 0 0 0 - - -;
#X floatatom 578 95 5 0 0 0 - - -;
#X obj 236 159 osc~ 400;
#X obj 236 419 dac~;
#X obj 236 228 *~, f 14;
#X obj 567 284 array define -yrange 0 1 amplitudeArc 64;
#X obj 417 284 tabread4~ amplitudeArc;
#X obj 230 368 *~;
#X floatatom 546 245 5 0 0 0 - - -;
#X obj 452 230 samphold~;
#X obj 702 131 noise~;
#X obj 418 256 *~, f 6;
#X obj 703 156 abs~;
#X obj 702 181 *~ 8;
#X obj 443 202 sig~;
#X floatatom 439 180 5 0 0 0 - - -;
#X text 6 4 sound source to rhythmify;
#X text 7 18 link sound source parameters to rhythm parameters;
#X text 8 33 update data in table to keep things interesting;
#X text 8 49 watch out for the end of the table wrapping around to
the start of the table;
#X text 12 76 smoothing function;
#X text 467 312 smoothing;
#X obj 31 338 delwrite~ sequence 5000;
#X obj 62 206 delread4~ sequence 34;
#X floatatom 57 120 0 0 1000 0 - - -;
#X obj 58 173 line~;
#X obj 152 301 *~ 0.7;
#X obj 417 398 mtof~;
#X obj 65 301 *~ 0.5;
#X floatatom 91 278 5 0 0 0 - - -;
#X obj 417 347 *~ 24;
#X obj 417 432 samphold~;
#X obj 418 370 +~ 45;
#X obj 61 146 pack 0 4000;
#X obj 624 433 tabread4~ amplitudeArc;
#X obj 686 385 samphold~;
#X obj 652 411 *~, f 6;
#X obj 677 357 sig~;
#X floatatom 673 335 5 0 0 0 - - -;
#X obj 236 189 *~ 0.01;
#X connect 0 0 11 1;
#X connect 0 1 18 0;
#X connect 0 2 43 0;
#X connect 0 3 16 1;
#X connect 0 3 38 1;
#X connect 0 3 42 1;
#X connect 1 0 0 0;
#X connect 2 0 0 0;
#X connect 3 0 0 0;
#X connect 4 0 0 0;
#X connect 5 0 1 0;
#X connect 6 0 2 0;
#X connect 7 0 3 0;
#X connect 8 0 4 0;
#X connect 9 0 46 0;
#X connect 11 0 14 0;
#X connect 13 0 14 1;
#X connect 14 0 10 1;
#X connect 14 0 10 0;
#X connect 14 0 29 0;
#X connect 15 0 13 1;
#X connect 16 0 18 1;
#X connect 17 0 19 0;
#X connect 18 0 13 0;
#X connect 19 0 20 0;
#X connect 21 0 16 0;
#X connect 22 0 21 0;
#X connect 30 0 33 0;
#X connect 30 0 35 0;
#X connect 31 0 40 0;
#X connect 32 0 30 0;
#X connect 33 0 10 0;
#X connect 33 0 10 1;
#X connect 34 0 38 0;
#X connect 35 0 29 0;
#X connect 36 0 35 1;
#X connect 37 0 39 0;
#X connect 38 0 9 0;
#X connect 39 0 34 0;
#X connect 40 0 32 0;
#X connect 41 0 37 0;
#X connect 42 0 43 1;
#X connect 43 0 41 0;
#X connect 44 0 42 0;
#X connect 45 0 44 0;
#X connect 46 0 11 0;
