#N canvas 51 23 1719 712 10;
#X obj 31 69 ike_core_soundDef synths;
#X obj 31 91 v synths-size;
#X obj 31 118 expr 48000/$f1;
#X obj 35 320 phasor~;
#X obj 35 375 tabread4~ synths;
#X obj 35 347 *~, f 22;
#X obj 35 291 * 1;
#X obj 218 257 t b f;
#X obj 216 97 / 360;
#X obj 218 233 expr exp(.057762265 * $f1);
#X obj 216 77 % 360;
#X floatatom 216 58 5 0 0 0 - - -;
#X obj 218 188 i;
#X obj 217 211 change;
#X msg 75 216 0;
#X floatatom 297 132 5 0 0 0 - - -;
#X floatatom 298 156 5 0 0 0 - - -;
#X floatatom 285 215 5 0 0 0 - - -;
#X obj 217 145 * 36;
#X obj 218 167 - 18;
#X obj 565 116 expr 48000/$f1;
#X obj 569 318 phasor~;
#X obj 569 345 *~, f 22;
#X obj 569 289 * 1;
#X obj 752 255 t b f;
#X obj 752 99 / 360;
#X obj 752 231 expr exp(.057762265 * $f1);
#X obj 752 79 % 360;
#X floatatom 752 60 5 0 0 0 - - -;
#X obj 752 186 i;
#X obj 751 209 change;
#X msg 609 214 0;
#X floatatom 831 130 5 0 0 0 - - -;
#X floatatom 832 154 5 0 0 0 - - -;
#X floatatom 819 213 5 0 0 0 - - -;
#X obj 565 67 ike_core_soundDef blimps;
#X obj 565 89 v blimps-size;
#X obj 569 373 tabread4~ blimps;
#X msg 32 45 ~/Desktop/sonikebana-synthWork/sonikebana-takeOff.wav
, f 75;
#X msg 565 43 ~/Desktop/sonikebana-synthWork/sonikebana-takeOff.wav
, f 75;
#X obj 180 448 ike_rhythm samplePat;
#X obj 1081 328 ike_rhythm windoz, f 34;
#X msg 1081 296 duration \$1;
#X msg 1185 296 parts \$1;
#X msg 1254 295 segments \$1;
#X msg 1341 298 window \$1;
#X floatatom 1081 264 5 0 0 0 - - -;
#X floatatom 1185 268 5 0 0 0 - - -;
#X floatatom 1255 268 5 0 0 0 - - -;
#X floatatom 1341 274 5 0 0 0 - - -;
#X obj 999 598 dac~;
#X obj 999 407 *~, f 14;
#X obj 1330 463 array define -yrange 0 1 amplitudeArc 64;
#X obj 1180 463 tabread4~ amplitudeArc;
#X obj 993 547 *~;
#X floatatom 1309 424 5 0 0 0 - - -;
#X obj 1215 409 samphold~;
#X obj 1465 310 noise~;
#X obj 1181 435 *~, f 6;
#X obj 1466 335 abs~;
#X obj 1465 360 *~ 8;
#X obj 1206 381 sig~;
#X floatatom 1202 359 5 0 0 0 - - -;
#X text 1230 491 smoothing;
#X obj 794 517 delwrite~ sequence 5000;
#X obj 825 385 delread4~ sequence 34;
#X floatatom 820 299 0 0 1000 0 - - -;
#X obj 821 352 line~;
#X obj 915 480 *~ 0.7;
#X obj 1180 577 mtof~;
#X obj 828 480 *~ 0.5;
#X floatatom 854 457 5 0 0 0 - - -;
#X obj 1180 526 *~ 24;
#X obj 1180 611 samphold~;
#X obj 1181 549 +~ 45;
#X obj 1387 612 tabread4~ amplitudeArc;
#X obj 1449 564 samphold~;
#X obj 1415 590 *~, f 6;
#X obj 1440 536 sig~;
#X floatatom 1436 514 5 0 0 0 - - -;
#X obj 757 122 abs;
#X obj 751 143 * 24;
#X obj 1269 134 metro 100;
#X obj 1268 114 tgl 15 0 empty empty empty 17 7 0 10 -262144 -1 -1
0 1;
#X obj 824 325 pack 0 12;
#X obj 1196 201 random 8;
#X obj 1262 198 random 4;
#X obj 1328 200 random 4;
#X obj 326 187 expr ($f1 * 40) + 10;
#X obj 218 120 abs;
#X floatatom 326 208 5 0 0 0 - - -;
#X obj 752 165 - 20;
#X connect 0 0 1 0;
#X connect 1 0 2 0;
#X connect 1 0 5 1;
#X connect 1 0 14 0;
#X connect 2 0 6 0;
#X connect 3 0 5 0;
#X connect 4 0 51 0;
#X connect 5 0 4 0;
#X connect 6 0 3 0;
#X connect 7 0 6 0;
#X connect 7 1 6 1;
#X connect 8 0 16 0;
#X connect 8 0 89 0;
#X connect 9 0 7 0;
#X connect 10 0 8 0;
#X connect 10 0 15 0;
#X connect 11 0 10 0;
#X connect 12 0 13 0;
#X connect 12 0 17 0;
#X connect 13 0 9 0;
#X connect 14 0 3 1;
#X connect 18 0 19 0;
#X connect 19 0 12 0;
#X connect 20 0 23 0;
#X connect 21 0 22 0;
#X connect 22 0 37 0;
#X connect 23 0 21 0;
#X connect 24 0 23 0;
#X connect 24 1 23 1;
#X connect 25 0 33 0;
#X connect 25 0 80 0;
#X connect 26 0 24 0;
#X connect 27 0 25 0;
#X connect 27 0 32 0;
#X connect 28 0 27 0;
#X connect 29 0 30 0;
#X connect 29 0 34 0;
#X connect 30 0 26 0;
#X connect 31 0 21 1;
#X connect 35 0 36 0;
#X connect 36 0 20 0;
#X connect 36 0 22 1;
#X connect 36 0 31 0;
#X connect 37 0 50 0;
#X connect 37 0 50 1;
#X connect 38 0 0 0;
#X connect 39 0 35 0;
#X connect 41 0 51 1;
#X connect 41 0 56 1;
#X connect 41 1 58 0;
#X connect 41 2 77 0;
#X connect 42 0 41 0;
#X connect 43 0 41 0;
#X connect 44 0 41 0;
#X connect 45 0 41 0;
#X connect 46 0 42 0;
#X connect 47 0 43 0;
#X connect 48 0 44 0;
#X connect 49 0 45 0;
#X connect 51 0 54 0;
#X connect 53 0 54 1;
#X connect 54 0 50 1;
#X connect 54 0 50 0;
#X connect 54 0 64 0;
#X connect 55 0 53 1;
#X connect 56 0 58 1;
#X connect 57 0 59 0;
#X connect 58 0 53 0;
#X connect 59 0 60 0;
#X connect 61 0 56 0;
#X connect 62 0 61 0;
#X connect 65 0 68 0;
#X connect 65 0 70 0;
#X connect 66 0 84 0;
#X connect 67 0 65 0;
#X connect 68 0 50 0;
#X connect 68 0 50 1;
#X connect 69 0 73 0;
#X connect 70 0 64 0;
#X connect 71 0 70 1;
#X connect 72 0 74 0;
#X connect 74 0 69 0;
#X connect 75 0 72 0;
#X connect 76 0 77 1;
#X connect 77 0 75 0;
#X connect 78 0 76 0;
#X connect 79 0 78 0;
#X connect 80 0 81 0;
#X connect 81 0 91 0;
#X connect 82 0 85 0;
#X connect 82 0 86 0;
#X connect 82 0 87 0;
#X connect 83 0 82 0;
#X connect 84 0 67 0;
#X connect 85 0 47 0;
#X connect 86 0 48 0;
#X connect 88 0 90 0;
#X connect 88 0 66 0;
#X connect 89 0 18 0;
#X connect 89 0 88 0;
#X connect 91 0 29 0;
