#N canvas 119 164 1296 714 10;
#X obj 64 340 wrap~;
#X obj 64 303 *~, f 54;
#X obj 665 529 samphold~;
#X obj 63 555 +~, f 101;
#X obj 64 250 phasor~, f 11;
#X obj 64 224 / 1, f 8;
#X msg 64 194 1000;
#X obj 64 162 t b f f, f 45;
#X obj 385 281 samphold~;
#X obj 63 631 outlet~ windowedEnvelope;
#X msg 232 611 windowCollection.wav;
#X obj 63 465 wrap~;
#X obj 63 444 *~, f 61;
#X obj 424 385 samphold~;
#X obj 63 505 *~ 510;
#X obj 665 406 sig~;
#X obj 63 532 +~ 1;
#X text 101 531 from 1 not zero;
#X text 114 507 size - 2 for tabread4~'s interpolation;
#X obj 385 238 sig~;
#X obj 424 361 sig~;
#X obj 232 587 loadbang;
#X obj 64 22 inlet params;
#X obj 64 50 route duration parts segments window, f 199;
#X obj 63 605 tabread4~ \$1;
#X obj 232 631 ike_core_soundDef \$1;
#X floatatom 92 72 5 0 0 0 - - -;
#X obj 432 643 outlet~ barRamp;
#X obj 550 640 outlet~ segmentRamp;
#X obj 665 464 *~ 511;
#X connect 0 0 12 0;
#X connect 0 0 13 1;
#X connect 1 0 0 0;
#X connect 2 0 3 1;
#X connect 3 0 24 0;
#X connect 4 0 1 0;
#X connect 4 0 8 1;
#X connect 4 0 27 0;
#X connect 5 0 4 0;
#X connect 6 0 5 0;
#X connect 7 0 6 0;
#X connect 7 1 5 1;
#X connect 8 0 1 1;
#X connect 10 0 25 0;
#X connect 11 0 14 0;
#X connect 11 0 2 1;
#X connect 11 0 28 0;
#X connect 12 0 11 0;
#X connect 13 0 12 1;
#X connect 14 0 16 0;
#X connect 15 0 29 0;
#X connect 16 0 3 0;
#X connect 19 0 8 0;
#X connect 20 0 13 0;
#X connect 21 0 10 0;
#X connect 22 0 23 0;
#X connect 23 0 7 0;
#X connect 23 0 26 0;
#X connect 23 1 19 0;
#X connect 23 2 20 0;
#X connect 23 3 15 0;
#X connect 24 0 9 0;
#X connect 29 0 2 0;
