#N canvas 52 35 1462 815 10;
#X obj 10 97 i;
#X obj 10 121 change;
#X obj 10 74 * 48, f 29;
#X obj 10 52 / 360;
#X floatatom 10 33 5 0 0 0 - - -;
#X obj 10 7 r heading;
#X obj 181 36 r circleParts;
#X floatatom 268 36 5 0 0 0 - - -;
#X obj 317 5 r dataBase;
#X obj 317 55 array define database1;
#X msg 317 29 read \$1;
#X obj 10 145 array get database1;
#X floatatom 10 168 5 0 0 0 - - -;
#X obj 502 661 tabread4~ windoze;
#X obj 502 691 *~, f 19;
#X obj 613 599 *~, f 9;
#X obj 613 636 +~, f 13;
#X obj 700 602 samphold~;
#X obj 673 574 samphold~;
#X obj 498 424 +~ 1;
#X obj 496 367 wrap~;
#X obj 512 304 samphold~;
#X obj 512 274 sig~;
#X obj 498 341 *~;
#X obj 574 442 * 511;
#X obj 574 465 sig~;
#X obj 574 489 samphold~;
#X obj 499 520 +~, f 13;
#X obj 574 413 change;
#X obj 574 386 r windowSelect;
#X obj 512 248 r subDivisions;
#X floatatom 473 248 5 0 0 0 - - -;
#X floatatom 541 388 5 0 0 0 - - -;
#X obj 268 297 phasor~;
#X obj 268 272 / 1, f 8;
#X msg 268 242 1000;
#X floatatom 268 187 5 0 0 0 - - -;
#X obj 268 213 t b f f, f 16;
#X obj 268 163 r eventDuration;
#X obj 674 426 * 44.1;
#X obj 674 454 sig~;
#X obj 672 517 *~;
#X floatatom 730 495 5 0 0 0 - - -;
#X obj 731 458 r grainPitch;
#N canvas 489 23 278 140 windows 1;
#X obj 7 56 soundfiler;
#X obj 7 80 v windowCollectionSize;
#X obj 7 11 inlet bang;
#X msg 7 33 read -resize windowCollection.wav windows;
#X obj 7 104 array define windows;
#X connect 0 0 1 0;
#X connect 2 0 3 0;
#X connect 3 0 0 0;
#X restore 595 43 pd windows;
#X obj 806 600 abs~;
#X obj 504 732 dac~;
#N canvas 0 23 450 300 buffers 0;
#X obj 6 104 array define soundSource;
#X obj 7 56 soundfiler;
#X obj 7 11 inlet bang;
#X obj 7 80 v soundSourceSize1;
#X msg 8 33 read -resize bluntedShards.aif soundSource;
#X connect 1 0 3 0;
#X connect 2 0 4 0;
#X connect 4 0 1 0;
#X restore 675 45 pd buffers;
#X obj 613 661 tabread4~ soundSource;
#X obj 687 486 /~;
#X obj 805 629 *~ 7.77e+06;
#X floatatom 879 411 5 0 0 0 - - -;
#X obj 869 433 expr exp(0.057762265 * $f1);
#X obj 808 560 phasor~ 1;
#X floatatom 812 533 10 0 0 0 - - -;
#X obj 498 397 *~ 510;
#X connect 0 0 1 0;
#X connect 1 0 11 0;
#X connect 2 0 0 0;
#X connect 3 0 2 0;
#X connect 4 0 3 0;
#X connect 5 0 4 0;
#X connect 6 0 2 1;
#X connect 7 0 2 1;
#X connect 8 0 10 0;
#X connect 10 0 9 0;
#X connect 11 0 12 0;
#X connect 13 0 14 0;
#X connect 14 0 46 0;
#X connect 14 0 46 1;
#X connect 15 0 16 0;
#X connect 16 0 48 0;
#X connect 17 0 16 1;
#X connect 18 0 15 1;
#X connect 19 0 27 0;
#X connect 20 0 26 1;
#X connect 20 0 18 1;
#X connect 20 0 17 1;
#X connect 20 0 15 0;
#X connect 20 0 55 0;
#X connect 21 0 23 1;
#X connect 22 0 21 0;
#X connect 23 0 20 0;
#X connect 24 0 25 0;
#X connect 25 0 26 0;
#X connect 26 0 27 1;
#X connect 27 0 13 0;
#X connect 28 0 24 0;
#X connect 29 0 28 0;
#X connect 30 0 22 0;
#X connect 31 0 22 0;
#X connect 31 0 49 1;
#X connect 32 0 28 0;
#X connect 33 0 23 0;
#X connect 33 0 21 1;
#X connect 34 0 33 0;
#X connect 35 0 34 0;
#X connect 36 0 37 0;
#X connect 37 0 35 0;
#X connect 37 1 34 1;
#X connect 37 2 39 0;
#X connect 38 0 36 0;
#X connect 39 0 40 0;
#X connect 40 0 49 0;
#X connect 41 0 18 0;
#X connect 42 0 41 1;
#X connect 43 0 42 0;
#X connect 45 0 50 0;
#X connect 48 0 14 1;
#X connect 49 0 41 0;
#X connect 50 0 17 0;
#X connect 51 0 52 0;
#X connect 52 0 42 0;
#X connect 53 0 45 0;
#X connect 54 0 53 0;
#X connect 55 0 19 0;
