#N canvas 0 23 479 475 10;
#X msg 236 209 \$1 200;
#X obj 332 76 sel 0 1, f 11;
#X obj 234 242 line~;
#X msg 363 147 1;
#X msg 331 147 0;
#X obj 14 358 *~;
#X obj 155 363 *~;
#X obj 332 45 inlet onOff;
#X msg 189 181 0 500;
#X obj 331 122 delay 510;
#X obj 155 398 outlet~ toRight~;
#X obj 14 400 outlet~ toLeft~;
#X obj 14 243 inlet~ left~;
#X obj 98 243 inlet~ right~;
#X obj 236 181 v \$1;
#X obj 236 79 t b f;
#X obj 332 178 outlet toDSPcontrol;
#X obj 236 9 inlet gain 0-1;
#X connect 0 0 2 0;
#X connect 1 0 8 0;
#X connect 1 0 9 0;
#X connect 1 1 3 0;
#X connect 1 1 14 0;
#X connect 2 0 5 1;
#X connect 2 0 6 1;
#X connect 3 0 16 0;
#X connect 4 0 16 0;
#X connect 5 0 11 0;
#X connect 6 0 10 0;
#X connect 7 0 1 0;
#X connect 8 0 2 0;
#X connect 9 0 4 0;
#X connect 12 0 5 0;
#X connect 13 0 6 0;
#X connect 14 0 0 0;
#X connect 15 0 14 0;
#X connect 15 1 14 0;
#X connect 17 0 15 0;
