#N canvas 91 23 557 590 10;
#X obj 150 15 inlet;
#X obj 149 268 metro 500;
#X obj 148 360 vline~;
#X obj 60 372 osc~;
#X obj 60 346 mtof;
#X obj 60 428 *~, f 15;
#X obj 60 510 outlet~;
#X obj 200 136 / 360;
#X obj 200 223 * 50;
#X obj 200 244 + 35;
#X obj 200 158 * 10;
#X obj 200 201 change;
#X obj 200 180 i;
#X msg 148 336 0.2 10 \, 0 75 5;
#X obj 60 320 + 36;
#X obj 60 297 random 36;
#X obj 200 114 spigot, f 16;
#X obj 150 64 t float float float, f 48;
#X obj 436 181 switch~;
#X obj 355 281 noise~;
#X obj 355 367 *~, f 10;
#X msg 412 283 \$1 560;
#X obj 412 307 line~;
#X obj 353 228 == 0;
#X msg 267 388 \$1 560;
#X obj 267 431 line~;
#X obj 60 466 *~, f 35;
#X obj 355 335 *~ 0.1;
#X obj 150 39 route enable heading noise noiseGain, f 66;
#X connect 0 0 28 0;
#X connect 1 0 13 0;
#X connect 1 0 15 0;
#X connect 2 0 5 1;
#X connect 3 0 5 0;
#X connect 4 0 3 0;
#X connect 5 0 26 0;
#X connect 7 0 10 0;
#X connect 8 0 9 0;
#X connect 9 0 1 1;
#X connect 10 0 12 0;
#X connect 11 0 8 0;
#X connect 12 0 11 0;
#X connect 13 0 2 0;
#X connect 14 0 4 0;
#X connect 15 0 14 0;
#X connect 16 0 7 0;
#X connect 17 0 1 0;
#X connect 17 1 16 1;
#X connect 17 2 18 0;
#X connect 19 0 27 0;
#X connect 20 0 6 0;
#X connect 21 0 22 0;
#X connect 22 0 20 1;
#X connect 23 0 24 0;
#X connect 24 0 25 0;
#X connect 25 0 26 1;
#X connect 26 0 6 0;
#X connect 27 0 20 0;
#X connect 28 0 17 0;
#X connect 28 1 16 0;
#X connect 28 2 21 0;
#X connect 28 2 23 0;
#X connect 28 3 27 1;
