#N canvas 0 23 450 300 10;
#X obj 116 240 outlet~ left;
#X obj 216 240 outlet~ right;
#X obj 117 139 lop~;
#X obj 216 141 hip~;
#X obj 116 56 inlet~ signal;
#X obj 237 51 inlet crossoverFrequency;
#X obj 237 95 v crossoverFrequency;
#X obj 236 71 t b f;
#X connect 2 0 0 0;
#X connect 3 0 1 0;
#X connect 4 0 2 0;
#X connect 4 0 3 0;
#X connect 5 0 7 0;
#X connect 6 0 3 1;
#X connect 6 0 2 1;
#X connect 7 0 6 0;
#X connect 7 1 6 0;
