#N canvas 0 23 557 590 10;
#X obj 150 15 inlet;
#X obj 149 268 metro 500;
#X obj 148 360 vline~;
#X obj 60 391 osc~;
#X obj 60 365 mtof;
#X obj 60 428 *~, f 15;
#X obj 60 459 outlet~;
#X obj 435 75 switch~;
#X obj 200 136 / 360;
#X obj 200 223 * 50;
#X obj 200 244 + 35;
#X obj 200 158 * 10;
#X obj 200 201 change;
#X obj 200 180 i;
#X msg 148 336 0.2 10 \, 0 75 5;
#X obj 200 90 inlet heading;
#X obj 60 339 + 36;
#X obj 60 316 random 36;
#X obj 200 114 spigot, f 16;
#X obj 150 43 t float float float, f 48;
#X connect 0 0 19 0;
#X connect 1 0 14 0;
#X connect 1 0 17 0;
#X connect 2 0 5 1;
#X connect 3 0 5 0;
#X connect 4 0 3 0;
#X connect 5 0 6 0;
#X connect 8 0 11 0;
#X connect 9 0 10 0;
#X connect 10 0 1 1;
#X connect 11 0 13 0;
#X connect 12 0 9 0;
#X connect 13 0 12 0;
#X connect 14 0 2 0;
#X connect 15 0 18 0;
#X connect 16 0 4 0;
#X connect 17 0 16 0;
#X connect 18 0 8 0;
#X connect 19 0 1 0;
#X connect 19 1 18 1;
#X connect 19 2 7 0;
