#N canvas 157 48 855 830 10;
#X obj 391 339 expr 48000/$f1;
#X obj 391 426 phasor~, f 11;
#X obj 391 453 *~, f 22;
#X obj 391 397 * 1;
#X obj 224 351 t b f;
#X obj 24 129 / 360;
#X obj 225 330 expr exp(.057762265 * $f1);
#X obj 24 109 % 360;
#X obj 224 308 change;
#X msg 453 372 0;
#X obj 224 236 * 100;
#X obj 224 285 i;
#X obj 23 458 line~;
#X obj 24 153 * 25, f 10;
#X obj 24 175 i;
#X obj 24 196 change;
#X obj 24 218 / 25, f 14;
#X obj 23 293 pack 1 1, f 27;
#X msg 241 160 read \$1;
#X obj 24 249 expr ($f1 * 5000) + 12000;
#X obj 81 20 inlet parameters;
#X obj 389 784 outlet~ soundToSystem;
#X obj 81 125 t f f;
#X obj 391 294 ike_core_soundDef \$0_synths;
#X obj 391 313 v \$0_synths-size;
#X obj 391 490 tabread4~ \$0_synths;
#X obj 23 484 delread4~ \$0_cabine;
#X obj 23 656 delwrite~ \$0_cabine 20000;
#X obj 224 260 array get \$0_melodyTable;
#X obj 241 139 makefilename melodyArray/%s;
#X obj 240 97 list prepend symbol;
#X obj 241 117 list trim;
#X obj 390 204 list prepend symbol;
#X obj 391 224 list trim;
#X obj 391 244 makefilename sound/%s;
#X obj 713 138 line~;
#X msg 713 112 \$1 20;
#X obj 23 623 *~, f 118;
#X obj 485 673 line~;
#X obj 485 644 pack 1 1, f 12;
#X obj 389 717 *~;
#X obj 81 68 route nPartsPerClick clickColour melodyArray soundSource
heading enable enableFadeTime feedbackLevel level, f 121;
#X obj 766 140 line~;
#X msg 766 114 \$1 20;
#X obj 389 760 *~, f 65;
#X obj 391 556 *~, f 43;
#X obj 241 180 array define -k -yrange -65 65 \$0_melodyTable;
#A 0 -36 -24 -20 -17 -12 -10 -8 -3 -1 2 4 7 9 14 16 17 24 28 31 36
40 40 43 48 52 53 53 53 53 53 53 53 53 53 53 53 53 53 53 53 53 53 53
53 53 53 53 53 53 53 53 53 53 53 53 53 53 53 53 53 53 53 53 53 53 53
53 53 53 53 53 53 53 53 53 53 53 53 53 53 53 53 53 53 53 53 53 53 53
53 53 53 53 53 53 53 53 53 53 53;
#X floatatom 241 201 5 0 0 0 - - -;
#N canvas 0 23 527 413 softSwapSoundFile 0;
#X msg 144 154 0;
#X obj 24 152 symbol;
#X obj 57 97 t symbol b b, f 30;
#X obj 325 172 t b;
#X msg 325 214 1;
#X obj 325 193 delay 10;
#X obj 144 259 line~;
#X msg 144 238 \$1 20;
#X obj 233 124 delay 25;
#X obj 57 65 inlet soundfilename;
#X obj 22 222 outlet toSoundDef;
#X obj 144 294 outlet~ fade;
#X obj 325 148 inlet retriggerFadeBackIn;
#X connect 0 0 7 0;
#X connect 1 0 10 0;
#X connect 2 0 1 1;
#X connect 2 1 0 0;
#X connect 2 2 8 0;
#X connect 3 0 5 0;
#X connect 4 0 7 0;
#X connect 5 0 4 0;
#X connect 6 0 11 0;
#X connect 7 0 6 0;
#X connect 8 0 1 0;
#X connect 9 0 2 0;
#X connect 12 0 3 0;
#X restore 391 269 pd softSwapSoundFile;
#X f 43;
#X obj 543 160 text;
#X obj 543 142 t b;
#X connect 0 0 3 0;
#X connect 1 0 2 0;
#X connect 2 0 25 0;
#X connect 3 0 1 0;
#X connect 4 0 3 0;
#X connect 4 1 3 1;
#X connect 5 0 13 0;
#X connect 6 0 4 0;
#X connect 7 0 5 0;
#X connect 8 0 6 0;
#X connect 9 0 1 1;
#X connect 10 0 28 0;
#X connect 11 0 8 0;
#X connect 12 0 26 0;
#X connect 13 0 14 0;
#X connect 14 0 15 0;
#X connect 15 0 16 0;
#X connect 16 0 10 0;
#X connect 16 0 19 0;
#X connect 17 0 12 0;
#X connect 18 0 46 0;
#X connect 19 0 17 0;
#X connect 20 0 41 0;
#X connect 22 0 13 1;
#X connect 22 1 16 1;
#X connect 23 0 24 0;
#X connect 24 0 0 0;
#X connect 24 0 2 1;
#X connect 24 0 9 0;
#X connect 24 0 48 1;
#X connect 25 0 45 0;
#X connect 26 0 37 0;
#X connect 26 0 40 0;
#X connect 28 0 11 0;
#X connect 29 0 18 0;
#X connect 30 0 31 0;
#X connect 31 0 29 0;
#X connect 32 0 33 0;
#X connect 33 0 34 0;
#X connect 34 0 48 0;
#X connect 35 0 37 1;
#X connect 36 0 35 0;
#X connect 37 0 27 0;
#X connect 38 0 40 1;
#X connect 39 0 38 0;
#X connect 40 0 44 0;
#X connect 41 0 22 0;
#X connect 41 1 17 1;
#X connect 41 2 30 0;
#X connect 41 3 32 0;
#X connect 41 4 7 0;
#X connect 41 5 39 0;
#X connect 41 6 39 1;
#X connect 41 7 36 0;
#X connect 41 8 43 0;
#X connect 42 0 44 1;
#X connect 43 0 42 0;
#X connect 44 0 21 0;
#X connect 45 0 27 0;
#X connect 45 0 40 0;
#X connect 46 0 47 0;
#X connect 48 0 23 0;
#X connect 48 1 45 1;
