#N canvas 0 23 1414 855 10;
#X text 923 14 on_off compassReceive name instance of the patch from
the computer number compass calibrate send compass to masterRouter
;
#X obj 1273 139 list prepend send;
#X obj 1273 164 list trim;
#X obj 1273 91 list prepend on;
#X obj 144 307 oscparse;
#X obj 144 329 list trim;
#X floatatom 1254 197 5 0 0 0 - - -;
#X floatatom 1333 195 5 0 0 0 - - -;
#X obj 1297 277 bng 15 250 50 0 empty empty empty 17 7 0 10 -262144
-1 -1;
#X obj 797 755 v on;
#X obj 1254 234 v LFfilter;
#N canvas 0 203 921 651 fetch 0;
#X obj 74 122 v heading;
#X obj 187 118 v highPass;
#X obj 301 120 v lowPass;
#X obj 415 123 v LFfilter;
#X obj 529 123 v masterGain;
#X obj 74 60 inlet;
#X obj 74 91 t b b b b b b b, f 98;
#X obj 257 374 list prepend send;
#X obj 257 399 list trim;
#X obj 187 205 list prepend highPass;
#X obj 74 150 list prepend heading;
#X obj 300 174 list prepend lowPass;
#X obj 415 148 list prepend LFfilter;
#X obj 529 171 list prepend masterGain;
#X msg 389 400 connect localhost 2345;
#X obj 257 462 netsend -u -b;
#X obj 389 373 loadbang;
#X obj 257 348 oscformat one;
#X connect 0 0 10 0;
#X connect 1 0 9 0;
#X connect 2 0 11 0;
#X connect 3 0 12 0;
#X connect 4 0 13 0;
#X connect 5 0 6 0;
#X connect 6 0 0 0;
#X connect 6 1 1 0;
#X connect 6 2 2 0;
#X connect 6 3 3 0;
#X connect 6 4 4 0;
#X connect 7 0 8 0;
#X connect 8 0 15 0;
#X connect 9 0 17 0;
#X connect 10 0 17 0;
#X connect 11 0 17 0;
#X connect 12 0 17 0;
#X connect 13 0 17 0;
#X connect 14 0 15 0;
#X connect 16 0 14 0;
#X connect 17 0 7 0;
#X restore 1297 312 pd fetch;
#X obj 1333 234 v heading;
#X obj 922 86 print;
#X obj 922 58 r stats;
#X obj 44 787 ike_gain masterGain, f 126;
#X obj 44 846 dac~, f 63;
#X obj 44 750 ike_crossover, f 42;
#X obj 44 722 ike_testSignal;
#X obj 1273 116 oscformat id_\$1;
#X obj 796 726 t b f;
#X msg 175 92 \; pd dsp \$1;
#X obj 19 215 list prepend send;
#X obj 19 236 list trim;
#X obj 19 260 netsend -u -b;
#X obj 153 202 loadbang;
#X floatatom 621 38 5 0 0 0 - - -;
#X obj 19 129 metro 1500;
#X msg 621 63 compass \$1 0.2 345 12 123 23 213 1 2 1 377;
#X obj 19 168 list, f 31;
#X obj 19 20 loadbang;
#X obj 19 44 t b b b b b b b, f 82;
#X msg 19 104 1;
#X obj 1085 697 s init;
#X obj 77 20 r init;
#X obj 1182 697 s sensorSpeed;
#X obj 76 102 r sensorSpeed;
#N canvas 0 23 635 186 sensorCollect 0;
#X obj 18 33 oscparse;
#X obj 18 55 list trim;
#X obj 18 12 netreceive -u -b 8000;
#X obj 172 112 route compass;
#X text 159 10 heading \, roll \, pitch \, x_acc \, y_acc \, z_acc
\, sys \, gyro \, accel \, mag \, temp_c, f 81;
#X obj 172 140 outlet toPatch;
#X obj 17 111 outlet toControlComputer;
#X connect 0 0 1 0;
#X connect 1 0 3 0;
#X connect 1 0 6 0;
#X connect 2 0 0 0;
#X connect 3 0 5 0;
#X restore 202 145 pd sensorCollect;
#X f 46;
#X text 91 121 throttle the sensorSend so it's not keeping the network
too busy;
#X obj 475 171 unpack 1 1 1 1 1 1 1 1 1 1 1, f 103;
#X obj 475 195 / 360;
#X obj 475 216 s heading;
#X obj 536 195 / 360;
#X obj 536 216 s roll;
#X obj 598 196 / 360;
#X obj 598 217 s pitch;
#X obj 658 217 s x-acc;
#X obj 721 219 s y-acc;
#X obj 782 219 s z-acc;
#X obj 658 196 / 24;
#X obj 721 198 / 24;
#X obj 782 198 / 24;
#X obj 293 444 ike_glitchDisco;
#X obj 523 326 list prepend heading;
#X floatatom 557 300 5 0 0 0 - - -;
#X obj 524 346 list trim;
#X obj 292 415 route glitchDisco;
#X obj 144 352 route one;
#X obj 145 402 route soundPlayer;
#X obj 143 443 ike_soundPlayer;
#X obj 634 271 random 360;
#X obj 705 273 random 10000;
#X obj 760 307 metro 10000;
#X obj 712 330 pack;
#X obj 713 357 line;
#X obj 682 292 tgl 15 0 empty empty empty 17 7 0 10 -262144 -1 -1 0
1;
#X text 555 98 to do \, sort out turning voices on and off \, sort
out the glitches when changing sound file;
#X obj 40 403 route testSignal;
#X obj 39 152 bng 15 250 50 0 empty empty empty 17 7 0 10 -262144 -1
-1;
#X msg 153 229 connect localhost 8001;
#X obj 19 192 oscformat \$1;
#X obj 145 287 netreceive -u -b 2346;
#X obj 463 819 line~;
#X msg 501 820 \$1 20;
#X obj 432 818 *~;
#X msg 175 71 1;
#X obj 1278 696 s speakerMode;
#X obj 545 818 r speakerMode;
#X obj 990 697 s crossOver;
#X obj 293 717 r crossOver;
#X obj 796 673 route on masterGain crossOver init sensorSpeed speakerMode
, f 97;
#X obj 891 698 s masterGain;
#X obj 546 757 r masterGain;
#X connect 1 0 2 0;
#X connect 3 0 19 0;
#X connect 4 0 5 0;
#X connect 5 0 57 0;
#X connect 6 0 10 0;
#X connect 7 0 12 0;
#X connect 8 0 11 0;
#X connect 9 0 15 3;
#X connect 14 0 13 0;
#X connect 15 0 16 0;
#X connect 15 0 74 0;
#X connect 15 1 16 1;
#X connect 17 0 15 0;
#X connect 17 1 15 1;
#X connect 18 0 17 0;
#X connect 19 0 1 0;
#X connect 20 0 9 0;
#X connect 20 1 9 0;
#X connect 22 0 23 0;
#X connect 23 0 24 0;
#X connect 25 0 69 0;
#X connect 26 0 28 0;
#X connect 27 0 29 0;
#X connect 27 0 68 0;
#X connect 28 0 29 1;
#X connect 29 0 70 0;
#X connect 30 0 31 0;
#X connect 31 0 32 0;
#X connect 31 1 75 0;
#X connect 32 0 27 0;
#X connect 34 0 31 0;
#X connect 36 0 27 1;
#X connect 37 0 29 1;
#X connect 37 1 39 0;
#X connect 39 0 40 0;
#X connect 39 0 53 0;
#X connect 39 1 42 0;
#X connect 39 2 44 0;
#X connect 39 3 49 0;
#X connect 39 4 50 0;
#X connect 39 5 51 0;
#X connect 40 0 41 0;
#X connect 42 0 43 0;
#X connect 44 0 45 0;
#X connect 49 0 46 0;
#X connect 50 0 47 0;
#X connect 51 0 48 0;
#X connect 52 0 17 0;
#X connect 53 0 55 0;
#X connect 54 0 53 0;
#X connect 55 0 52 0;
#X connect 55 0 59 0;
#X connect 55 0 18 0;
#X connect 56 0 52 0;
#X connect 57 0 56 0;
#X connect 57 0 58 0;
#X connect 57 0 67 0;
#X connect 57 0 80 0;
#X connect 58 0 59 0;
#X connect 59 0 17 0;
#X connect 60 0 63 0;
#X connect 61 0 62 1;
#X connect 61 0 63 1;
#X connect 62 0 61 0;
#X connect 62 0 60 0;
#X connect 63 0 64 0;
#X connect 64 0 54 0;
#X connect 64 0 26 0;
#X connect 65 0 62 0;
#X connect 67 0 18 0;
#X connect 69 0 24 0;
#X connect 70 0 22 0;
#X connect 71 0 4 0;
#X connect 72 0 74 1;
#X connect 73 0 72 0;
#X connect 74 0 16 1;
#X connect 75 0 21 0;
#X connect 77 0 73 0;
#X connect 79 0 17 1;
#X connect 80 0 20 0;
#X connect 80 1 81 0;
#X connect 80 2 78 0;
#X connect 80 3 33 0;
#X connect 80 4 35 0;
#X connect 80 5 76 0;
#X connect 82 0 15 2;
