#N canvas 152 39 1462 815 10;
#X obj 10 97 i;
#X obj 10 121 change;
#X obj 10 74 * 48, f 29;
#X obj 10 52 / 360;
#X floatatom 10 33 5 0 0 0 - - -;
#X obj 10 7 r heading;
#X obj 181 36 r circleParts;
#X floatatom 268 36 5 0 0 0 - - -;
#X obj 317 5 r dataBase;
#X obj 317 55 array define database1;
#X msg 317 29 read \$1;
#X obj 10 145 array get database1;
#X floatatom 10 168 5 0 0 0 - - -;
#X obj 409 703 *~, f 19;
#X obj 520 619 *~, f 9;
#X obj 520 648 +~, f 54;
#X obj 841 622 samphold~;
#X obj 571 544 samphold~;
#X obj 405 392 +~ 1;
#X obj 403 335 wrap~;
#X obj 502 285 samphold~;
#X obj 502 255 sig~;
#X obj 403 310 *~, f 17;
#X obj 481 410 * 511;
#X obj 481 433 sig~;
#X obj 481 457 samphold~;
#X obj 406 488 +~, f 13;
#X obj 481 381 change;
#X obj 403 247 phasor~;
#X obj 403 222 / 1, f 8;
#X msg 403 192 1000;
#X obj 403 160 t b f f, f 45;
#X obj 581 368 * 44.1;
#X obj 731 413 expr exp(0.057762265 * $f1);
#X obj 405 365 *~ 510;
#X obj 861 449 ike_core_soundDef basicStore;
#X obj 520 673 tabread4~ basicStore;
#X obj 409 673 tabread4~ windows;
#X obj 861 514 v basicStore-size;
#X obj 24 743 ike_core_soundDef windows;
#X msg 24 723 windowCollection.wav;
#X obj 840 589 *~ 2;
#X obj 962 274 samplerate~;
#X obj 962 296 * 0.001;
#X obj 581 433 /, f 17;
#X obj 581 462 *, f 30;
#X obj 581 489 sig~;
#X obj 731 436 t b f;
#X obj 502 220 t f b f, f 27;
#X obj 403 95 inlet controlInfo;
#X obj 405 119 route eventDuration subDivisions windowSelect grainPitch
sampleName init gain, f 132;
#X obj 1089 650 line~;
#X obj 409 728 *~, f 114;
#X msg 1088 604 \$1 23;
#X obj 409 757 outlet~ grainSignal;
#X obj 1313 89 abs~;
#X floatatom 1313 43 10 0 0 0 - - -;
#X obj 1313 66 phasor~ 0.002;
#X obj 840 563 inlet~ grainPosition 0-1;
#X obj 941 424 symbol, f 8;
#X obj 941 350 t b s 0, f 15;
#X obj 941 375 delay 25;
#X msg 1028 383 \$1 20;
#X obj 941 399 t b b, f 11;
#X obj 1048 495 f;
#X msg 1048 521 \$1 20;
#X obj 547 763 dac~;
#X msg 748 64 eventDuration \$1;
#X floatatom 913 41 5 0 0 0 - - -;
#X msg 748 84 subDivisions \$1;
#X floatatom 903 59 5 0 0 0 - - -;
#X obj 881 202 symbol;
#X obj 1003 232 bng 15 250 50 0 empty empty empty 17 7 0 10 -262144
-1 -1;
#X msg 750 17 gain \$1;
#X floatatom 811 15 5 0 0 0 - - -;
#X msg 994 74 grainPitch \$1;
#X floatatom 997 49 5 0 0 0 - - -;
#X floatatom 1129 58 5 0 0 0 - - -;
#X msg 1126 83 windowSelect \$1;
#X floatatom 709 157 5 0 0 0 - - -;
#X msg 748 41 sampleName bluntedShards.aif;
#X connect 0 0 1 0;
#X connect 1 0 11 0;
#X connect 2 0 0 0;
#X connect 3 0 2 0;
#X connect 4 0 3 0;
#X connect 5 0 4 0;
#X connect 6 0 2 1;
#X connect 7 0 2 1;
#X connect 8 0 10 0;
#X connect 10 0 9 0;
#X connect 11 0 12 0;
#X connect 13 0 52 0;
#X connect 14 0 15 0;
#X connect 15 0 36 0;
#X connect 16 0 15 1;
#X connect 17 0 14 1;
#X connect 18 0 26 0;
#X connect 19 0 25 1;
#X connect 19 0 17 1;
#X connect 19 0 16 1;
#X connect 19 0 14 0;
#X connect 19 0 34 0;
#X connect 20 0 22 1;
#X connect 21 0 20 0;
#X connect 22 0 19 0;
#X connect 23 0 24 0;
#X connect 24 0 25 0;
#X connect 25 0 26 1;
#X connect 26 0 37 0;
#X connect 27 0 23 0;
#X connect 28 0 22 0;
#X connect 28 0 20 1;
#X connect 29 0 28 0;
#X connect 30 0 29 0;
#X connect 31 0 30 0;
#X connect 31 1 29 1;
#X connect 31 2 32 0;
#X connect 32 0 44 0;
#X connect 33 0 47 0;
#X connect 34 0 18 0;
#X connect 35 0 38 0;
#X connect 35 0 64 0;
#X connect 36 0 13 1;
#X connect 37 0 13 0;
#X connect 38 0 41 1;
#X connect 40 0 39 0;
#X connect 41 0 16 0;
#X connect 42 0 43 0;
#X connect 43 0 32 1;
#X connect 44 0 45 0;
#X connect 45 0 46 0;
#X connect 46 0 17 0;
#X connect 47 0 45 0;
#X connect 47 1 45 1;
#X connect 48 0 21 0;
#X connect 48 1 32 0;
#X connect 48 2 44 1;
#X connect 49 0 50 0;
#X connect 50 0 31 0;
#X connect 50 1 48 0;
#X connect 50 2 27 0;
#X connect 50 2 79 0;
#X connect 50 3 33 0;
#X connect 50 4 71 0;
#X connect 50 5 42 0;
#X connect 50 6 53 0;
#X connect 50 6 64 1;
#X connect 51 0 52 1;
#X connect 52 0 54 0;
#X connect 52 0 66 0;
#X connect 52 0 66 1;
#X connect 53 0 51 0;
#X connect 55 0 41 0;
#X connect 56 0 57 0;
#X connect 57 0 55 0;
#X connect 58 0 41 0;
#X connect 59 0 35 0;
#X connect 60 0 61 0;
#X connect 60 1 59 1;
#X connect 60 2 62 0;
#X connect 61 0 63 0;
#X connect 62 0 51 0;
#X connect 63 0 59 0;
#X connect 64 0 65 0;
#X connect 65 0 51 0;
#X connect 67 0 50 0;
#X connect 68 0 67 0;
#X connect 69 0 50 0;
#X connect 70 0 69 0;
#X connect 71 0 60 0;
#X connect 72 0 42 0;
#X connect 73 0 50 0;
#X connect 74 0 73 0;
#X connect 75 0 50 0;
#X connect 76 0 75 0;
#X connect 77 0 78 0;
#X connect 78 0 50 0;
#X connect 80 0 50 0;
