#N canvas 0 23 443 475 10;
#X obj 332 76 sel 0 1, f 11;
#X obj 234 242 line~;
#X msg 363 147 1;
#X msg 331 147 0;
#X obj 14 358 *~;
#X obj 332 45 inlet onOff;
#X msg 189 181 0 500;
#X obj 331 122 delay 510;
#X obj 332 178 outlet toSwitch;
#X obj 14 400 outlet~ toLeft~;
#X obj 14 243 inlet~ left~;
#X obj 236 181 v \$1;
#X obj 237 30 inlet gain;
#X obj 236 79 t b f;
#X msg 235 209 \$1 10;
#X obj 218 290 *~;
#X obj 236 55 dbtorms;
#X connect 0 0 6 0;
#X connect 0 0 7 0;
#X connect 0 1 2 0;
#X connect 0 1 11 0;
#X connect 1 0 15 1;
#X connect 1 0 15 0;
#X connect 2 0 8 0;
#X connect 3 0 8 0;
#X connect 4 0 9 0;
#X connect 5 0 0 0;
#X connect 6 0 1 0;
#X connect 7 0 3 0;
#X connect 10 0 4 0;
#X connect 11 0 14 0;
#X connect 12 0 16 0;
#X connect 13 0 11 0;
#X connect 13 1 11 0;
#X connect 14 0 1 0;
#X connect 15 0 4 1;
#X connect 16 0 13 0;
