#N canvas 0 203 1172 606 10;
#X obj 431 281 tgl 15 0 empty empty empty 17 7 0 10 -262144 -1 -1 1
1;
#X text 19 21 on_off compassReceive name instance of the patch from
the computer number compass calibrate send compass to masterRouter
;
#X obj 292 377 list prepend send;
#X obj 292 402 list trim;
#X obj 292 351 oscformat id_#1;
#X obj 292 326 list prepend on;
#X obj 430 116 oscparse;
#X obj 430 143 list trim;
#X floatatom 498 290 5 0 0 0 - - -, f 5;
#X floatatom 583 280 5 0 0 0 - - -, f 5;
#X floatatom 660 283 5 0 0 0 - - -, f 5;
#X floatatom 734 283 5 0 0 0 - - -, f 5;
#X floatatom 813 281 5 0 0 0 - - -, f 5;
#X obj 909 285 bng 15 250 50 0 empty empty empty 17 7 0 10 -262144
-1 -1;
#X obj 430 319 v on;
#X obj 734 320 v LFfilter;
#N canvas 0 203 921 651 fetch 0;
#X obj 74 122 v heading;
#X obj 187 118 v highPass;
#X obj 301 120 v lowPass;
#X obj 415 123 v LFfilter;
#X obj 529 123 v masterGain;
#X obj 74 60 inlet;
#X obj 74 91 t b b b b b b b, f 98;
#X obj 257 374 list prepend send;
#X obj 257 399 list trim;
#X obj 187 205 list prepend highPass;
#X obj 74 150 list prepend heading;
#X obj 300 174 list prepend lowPass;
#X obj 415 148 list prepend LFfilter;
#X obj 529 171 list prepend masterGain;
#X msg 389 400 connect localhost 2345;
#X obj 257 462 netsend -u -b;
#X obj 389 373 loadbang;
#X obj 257 348 oscformat one;
#X connect 0 0 10 0;
#X connect 1 0 9 0;
#X connect 2 0 11 0;
#X connect 3 0 12 0;
#X connect 4 0 13 0;
#X connect 5 0 6 0;
#X connect 6 0 0 0;
#X connect 6 1 1 0;
#X connect 6 2 2 0;
#X connect 6 3 3 0;
#X connect 6 4 4 0;
#X connect 7 0 8 0;
#X connect 8 0 15 0;
#X connect 9 0 17 0;
#X connect 10 0 17 0;
#X connect 11 0 17 0;
#X connect 12 0 17 0;
#X connect 13 0 17 0;
#X connect 14 0 15 0;
#X connect 16 0 14 0;
#X connect 17 0 7 0;
#X restore 909 320 pd fetch;
#X obj 492 321 v masterGain;
#X obj 813 320 v heading;
#X obj 431 248 route on masterGain lowPass highPass LFfilter heading
fetch, f 72;
#X obj 583 320 v lowPass;
#X obj 660 321 v highPass;
#X obj 967 282 print;
#X obj 431 88 netreceive -u -b 2346;
#X obj 302 172 print;
#X obj 431 171 route two;
#X connect 0 0 5 0;
#X connect 0 0 14 0;
#X connect 2 0 3 0;
#X connect 4 0 2 0;
#X connect 5 0 4 0;
#X connect 6 0 7 0;
#X connect 7 0 25 0;
#X connect 8 0 17 0;
#X connect 9 0 20 0;
#X connect 10 0 21 0;
#X connect 11 0 15 0;
#X connect 12 0 18 0;
#X connect 13 0 16 0;
#X connect 19 0 0 0;
#X connect 19 1 8 0;
#X connect 19 2 9 0;
#X connect 19 3 10 0;
#X connect 19 4 11 0;
#X connect 19 5 12 0;
#X connect 19 6 13 0;
#X connect 19 7 22 0;
#X connect 23 0 6 0;
#X connect 25 0 19 0;
