#N canvas 150 -125 1440 831 10;
#X obj 20 238 wrap~;
#X obj 723 111 sig~;
#X obj 20 201 *~, f 54;
#X obj 621 427 samphold~;
#X obj 19 457 +~, f 101;
#X obj 20 148 phasor~, f 11;
#X obj 20 122 / 1, f 8;
#X msg 20 92 1000;
#X obj 20 60 t b f f, f 45;
#X obj 723 87 t f b f, f 27;
#X obj 341 179 samphold~;
#X obj 19 572 outlet~ windowedEnvelope;
#X floatatom 20 29 5 0 0 0 - - -;
#X floatatom 723 62 5 0 0 0 - - -;
#X msg 24 723 windowCollection.wav;
#X obj 24 743 ike_core_soundDef rhythmWindow;
#X text 101 24 bar duration;
#X text 773 66 parts to the bar;
#X obj 19 363 wrap~;
#X obj 764 164 sig~;
#X obj 19 342 *~, f 54;
#X obj 764 140 t f b f, f 27;
#X obj 380 283 samphold~;
#X floatatom 764 115 5 0 0 0 - - -;
#X text 428 273 parts to the beat;
#X obj 297 639 *~;
#X obj 309 520 osc~ 400;
#X obj 296 684 dac~;
#X text 386 71 parts to the beat;
#X obj 19 482 tabread4~ rhythmWindow;
#X obj 19 403 *~ 510;
#X obj 621 304 sig~;
#X obj 558 26 tgl 15 0 empty empty empty 17 7 0 10 -262144 -1 -1 0
1;
#X obj 19 430 +~ 1;
#X floatatom 663 216 5 0 0 0 - - -;
#X text 57 429 from 1 not zero;
#X text 70 405 size - 2 for tabread4~'s interpolation;
#X obj 341 136 sig~;
#X obj 342 113 + 1;
#X obj 380 259 sig~;
#X obj 381 236 + 1;
#X obj 621 362 *~ 511;
#X obj 341 90 random 64;
#X obj 380 213 random 3;
#X obj 621 263 random 67;
#X floatatom 395 41 5 0 0 0 - - -;
#X floatatom 445 180 5 0 0 0 - - -;
#X obj 453 538 tabread4~ amplitdueSensing;
#X obj 309 556 *~ 0.05;
#X obj 310 613 *~;
#X obj 945 436 array define -yrange 0 1 amplitdueSensing 20;
#X obj 532 688 *~ 20;
#X obj 532 716 samphold~;
#X obj 946 456 array define -yrange -12 12 pitches 20;
#X obj 647 619 tabread4~ pitches;
#X obj 648 680 mtof~;
#X obj 647 597 *~ 20;
#X obj 648 650 +~ 60;
#X obj 645 568 samphold~;
#X obj 241 740 ike_core_soundDef soundFile;
#X obj 790 500 tabread4~ soundFile;
#X obj 821 372 v soundFile-size;
#X obj 806 400 *~;
#X obj 821 332 bng 15 250 50 0 empty empty empty 17 7 0 10 -262144
-1 -1;
#X obj 806 433 samphold~;
#X obj 790 468 +~;
#X floatatom 855 393 5 0 0 0 - - -;
#X obj 780 715 delwrite~ sampleSignature 4000;
#X obj 780 660 delread4~ sampleSignature;
#X msg 241 720 tuningIN.aif;
#X obj 782 686 *~;
#X obj 887 584 abs~;
#X msg 346 711 strummedCheese.aif;
#X obj 885 555 noise~;
#X obj 779 575 phasor~ 0.2;
#X obj 891 632 samphold~;
#X obj 738 439 *~ 1234;
#X floatatom 764 415 5 0 0 0 - - -;
#X obj 556 57 metro 123;
#X obj 779 636 *~ 1234;
#X obj 889 608 *~ 0.999;
#X connect 0 0 20 0;
#X connect 0 0 22 1;
#X connect 0 0 52 1;
#X connect 0 0 64 1;
#X connect 0 0 73 0;
#X connect 0 0 75 1;
#X connect 2 0 0 0;
#X connect 3 0 4 1;
#X connect 4 0 29 0;
#X connect 5 0 2 0;
#X connect 5 0 10 1;
#X connect 5 0 58 0;
#X connect 5 0 51 0;
#X connect 5 0 62 0;
#X connect 5 0 79 0;
#X connect 6 0 5 0;
#X connect 7 0 6 0;
#X connect 8 0 7 0;
#X connect 8 1 6 1;
#X connect 9 0 1 0;
#X connect 10 0 2 1;
#X connect 12 0 8 0;
#X connect 13 0 9 0;
#X connect 14 0 15 0;
#X connect 18 0 30 0;
#X connect 18 0 58 1;
#X connect 18 0 3 1;
#X connect 18 0 76 0;
#X connect 20 0 18 0;
#X connect 21 0 19 0;
#X connect 22 0 20 1;
#X connect 23 0 21 0;
#X connect 25 0 27 0;
#X connect 25 0 27 1;
#X connect 25 0 67 0;
#X connect 26 0 48 0;
#X connect 29 0 11 0;
#X connect 29 0 25 0;
#X connect 30 0 33 0;
#X connect 31 0 41 0;
#X connect 32 0 78 0;
#X connect 33 0 4 0;
#X connect 34 0 44 1;
#X connect 37 0 10 0;
#X connect 38 0 37 0;
#X connect 39 0 22 0;
#X connect 40 0 39 0;
#X connect 41 0 3 0;
#X connect 42 0 38 0;
#X connect 43 0 40 0;
#X connect 44 0 31 0;
#X connect 45 0 42 1;
#X connect 46 0 43 1;
#X connect 47 0 49 1;
#X connect 49 0 25 1;
#X connect 51 0 52 0;
#X connect 52 0 47 0;
#X connect 54 0 57 0;
#X connect 55 0 26 0;
#X connect 56 0 54 0;
#X connect 57 0 55 0;
#X connect 58 0 56 0;
#X connect 60 0 49 0;
#X connect 61 0 62 1;
#X connect 61 0 66 0;
#X connect 62 0 64 0;
#X connect 63 0 61 0;
#X connect 64 0 65 1;
#X connect 65 0 60 0;
#X connect 68 0 27 1;
#X connect 68 0 27 0;
#X connect 68 0 70 0;
#X connect 69 0 59 0;
#X connect 70 0 67 0;
#X connect 71 0 80 0;
#X connect 72 0 59 0;
#X connect 73 0 71 0;
#X connect 75 0 70 1;
#X connect 76 0 65 0;
#X connect 77 0 76 1;
#X connect 78 0 43 0;
#X connect 78 0 44 0;
#X connect 78 0 42 0;
#X connect 79 0 68 0;
#X connect 80 0 75 0;
