#N canvas 179 385 1110 765 10;
#X obj 28 424 delwrite~ \$0reson 500;
#X obj 342 84 delread4~ \$0reson;
#X obj 199 107 noise~;
#X obj 342 116 lop~, f 35;
#X obj 550 72 mtof;
#X floatatom 550 43 5 0 0 0 - - -;
#X floatatom 225 308 5 0 0.99 0 - - -;
#X obj 28 389 +~, f 27;
#X floatatom 573 274 5 0 0 0 - - -;
#X obj 335 380 dac~;
#X obj 28 299 *~, f 24;
#X obj 28 202 /~;
#X obj 28 178 sig~ 1;
#X obj 28 223 abs~;
#X obj 28 243 clip~ 0.001 1;
#X obj 28 349 *~ 0.2;
#X floatatom 61 327 5 0 0 0 - - -;
#X text 603 38 this number responds well to heading;
#X obj 623 441 mtof;
#X msg 574 436 1000;
#X obj 574 459 /, f 8;
#X obj 634 217 - 63;
#X obj 635 240 / 64;
#X obj 572 295 t b f;
#X obj 574 482 +, f 20;
#X obj 635 262 - 1;
#X obj 634 285 abs;
#X obj 629 409 float;
#X obj 636 364 t b b f;
#X obj 634 313 *;
#X obj 635 335 * -0.2;
#X obj 187 357 *~ 0.89;
#X obj 131 103 readsf~;
#X obj 128 47 openpanel;
#X obj 134 21 bng 15 250 50 0 empty empty empty 17 7 0 10 -262144 -1
-1;
#X msg 133 74 open \$1 \, 1;
#X msg 225 71 1;
#X obj 176 138 *~;
#X obj 169 212 lop~ 7000;
#X obj 169 238 hip~ 90;
#X obj 221 136 *~ 0.99;
#X obj 588 534 line~;
#X obj 169 181 *~ 0.2;
#X obj 485 481 *~;
#X msg 588 514 \$1 3456;
#X obj 28 266 lop~ 3;
#X obj 46 103 readsf~;
#X obj 43 47 openpanel;
#X obj 49 21 bng 15 250 50 0 empty empty empty 17 7 0 10 -262144 -1
-1;
#X msg 48 74 open \$1 \, 1;
#X connect 1 0 3 0;
#X connect 1 0 37 0;
#X connect 2 0 37 1;
#X connect 3 0 9 0;
#X connect 3 0 9 1;
#X connect 3 0 31 0;
#X connect 3 0 11 1;
#X connect 4 0 3 1;
#X connect 5 0 4 0;
#X connect 5 0 21 0;
#X connect 6 0 31 1;
#X connect 7 0 0 0;
#X connect 8 0 23 0;
#X connect 10 0 15 0;
#X connect 11 0 13 0;
#X connect 12 0 11 0;
#X connect 13 0 14 0;
#X connect 14 0 45 0;
#X connect 15 0 7 0;
#X connect 16 0 15 1;
#X connect 18 0 20 1;
#X connect 19 0 20 0;
#X connect 20 0 24 0;
#X connect 21 0 22 0;
#X connect 22 0 25 0;
#X connect 23 0 19 0;
#X connect 23 1 27 0;
#X connect 24 0 44 0;
#X connect 25 0 26 0;
#X connect 26 0 29 1;
#X connect 26 0 29 0;
#X connect 27 0 18 0;
#X connect 28 0 19 0;
#X connect 28 1 27 0;
#X connect 28 2 24 1;
#X connect 29 0 30 0;
#X connect 30 0 28 0;
#X connect 31 0 7 1;
#X connect 32 0 42 0;
#X connect 32 1 35 0;
#X connect 33 0 35 0;
#X connect 34 0 33 0;
#X connect 35 0 32 0;
#X connect 36 0 32 0;
#X connect 37 0 40 0;
#X connect 38 0 39 0;
#X connect 39 0 10 1;
#X connect 41 0 43 1;
#X connect 41 0 43 0;
#X connect 42 0 38 0;
#X connect 43 0 1 0;
#X connect 44 0 41 0;
#X connect 45 0 10 0;
#X connect 46 0 42 0;
#X connect 46 1 49 0;
#X connect 47 0 49 0;
#X connect 48 0 47 0;
#X connect 49 0 46 0;
