#N canvas 0 23 1281 894 10;
#X obj 137 792 *~, f 19;
#X obj 248 708 *~, f 9;
#X obj 248 737 +~, f 54;
#X obj 569 711 samphold~;
#X obj 299 633 samphold~;
#X obj 133 481 +~ 1;
#X obj 132 425 wrap~;
#X obj 231 338 sig~;
#X obj 131 399 *~, f 17;
#X obj 209 499 * 511;
#X obj 209 522 sig~;
#X obj 209 546 samphold~;
#X obj 134 577 +~, f 13;
#X obj 209 470 change;
#X obj 133 335 phasor~;
#X obj 131 311 / 1, f 8;
#X msg 131 281 1000;
#X obj 131 249 t b f f, f 45;
#X obj 320 452 * 44.1;
#X obj 459 502 expr exp(0.057762265 * $f1);
#X obj 133 454 *~ 510;
#X obj 137 762 tabread4~ windows;
#X obj 588 583 v basicStore-size;
#X obj 566 661 *~ 2;
#X obj 690 363 samplerate~;
#X obj 690 385 * 0.001;
#X obj 459 525 t b f;
#X obj 230 309 t f b f, f 27;
#X obj 132 28 inlet controlInfo;
#X obj 134 52 route eventDuration subDivisions windowSelect grainPitch
sampleName init gain, f 132;
#X obj 814 720 line~;
#X obj 137 817 *~, f 114;
#X msg 816 693 \$1 23;
#X obj 137 846 outlet~ grainSignal;
#X obj 669 513 symbol, f 8;
#X obj 669 439 t b s 0, f 15;
#X obj 669 464 delay 25;
#X msg 756 472 \$1 20;
#X obj 669 488 t b b, f 11;
#X obj 776 584 f;
#X msg 776 610 \$1 20;
#X obj 609 291 symbol;
#X obj 731 321 bng 15 250 50 0 empty empty empty 17 7 0 10 -262144
-1 -1;
#X floatatom 437 246 5 0 0 0 - - -;
#X obj 589 538 ike_core_soundDef \$1;
#X obj 248 762 tabread4~ \$1;
#X obj 305 572 *~, f 30;
#X obj 309 523 /~, f 17;
#X obj 331 490 sig~;
#X obj 270 371 samphold~;
#X connect 0 0 31 0;
#X connect 1 0 2 0;
#X connect 2 0 45 0;
#X connect 3 0 2 1;
#X connect 4 0 1 1;
#X connect 5 0 12 0;
#X connect 6 0 11 1;
#X connect 6 0 4 1;
#X connect 6 0 3 1;
#X connect 6 0 1 0;
#X connect 6 0 20 0;
#X connect 7 0 49 0;
#X connect 8 0 6 0;
#X connect 9 0 10 0;
#X connect 10 0 11 0;
#X connect 11 0 12 1;
#X connect 12 0 21 0;
#X connect 13 0 9 0;
#X connect 14 0 8 0;
#X connect 14 0 49 1;
#X connect 14 0 23 0;
#X connect 15 0 14 0;
#X connect 16 0 15 0;
#X connect 17 0 16 0;
#X connect 17 1 15 1;
#X connect 17 2 18 0;
#X connect 18 0 48 0;
#X connect 19 0 26 0;
#X connect 20 0 5 0;
#X connect 21 0 0 0;
#X connect 22 0 23 1;
#X connect 23 0 3 0;
#X connect 24 0 25 0;
#X connect 25 0 18 1;
#X connect 26 1 46 1;
#X connect 27 0 7 0;
#X connect 27 1 18 0;
#X connect 27 2 47 1;
#X connect 28 0 29 0;
#X connect 29 0 17 0;
#X connect 29 1 27 0;
#X connect 29 2 13 0;
#X connect 29 2 43 0;
#X connect 29 3 19 0;
#X connect 29 4 41 0;
#X connect 29 5 24 0;
#X connect 29 6 32 0;
#X connect 29 6 39 1;
#X connect 30 0 31 1;
#X connect 31 0 33 0;
#X connect 32 0 30 0;
#X connect 34 0 44 0;
#X connect 35 0 36 0;
#X connect 35 1 34 1;
#X connect 35 2 37 0;
#X connect 36 0 38 0;
#X connect 37 0 30 0;
#X connect 38 0 34 0;
#X connect 39 0 40 0;
#X connect 40 0 30 0;
#X connect 41 0 35 0;
#X connect 42 0 24 0;
#X connect 44 0 22 0;
#X connect 44 0 39 0;
#X connect 45 0 0 1;
#X connect 46 0 4 0;
#X connect 47 0 46 0;
#X connect 48 0 47 0;
#X connect 49 0 8 1;
