#N canvas 199 89 724 639 10;
#X obj 391 332 expr 48000/$f1;
#X obj 391 426 phasor~, f 11;
#X obj 391 453 *~, f 22;
#X obj 391 397 * 1;
#X obj 224 351 t b f;
#X obj 24 129 / 360;
#X obj 225 330 expr exp(.057762265 * $f1);
#X obj 24 109 % 360;
#X obj 224 308 change;
#X msg 453 372 0;
#X obj 224 236 * 100;
#X obj 224 285 i;
#X obj 391 546 *~ 0.2;
#X obj 23 458 line~;
#X obj 23 539 *~ 0.55;
#X obj 24 153 * 25, f 10;
#X obj 24 175 i;
#X obj 24 196 change;
#X obj 24 218 / 25, f 14;
#X obj 23 293 pack 1 1, f 27;
#X msg 286 111 read \$1;
#X obj 24 249 expr ($f1 * 5000) + 12000;
#X obj 81 20 inlet parameters;
#X obj 391 575 outlet~ soundToSystem;
#X obj 81 68 route nPartsPerClick clickColour melodyArray soundSource
heading, f 86;
#X obj 81 125 t f f;
#X msg 198 13 soundSource /Users/mparker/Desktop/sonikebana-synthWork/sonikebana-highPitched.wav
, f 75;
#X obj 391 274 ike_core_soundDef \$0_synths;
#X obj 391 297 v \$0_synths-size;
#X obj 391 490 tabread4~ \$0_synths;
#X obj 23 484 delread4~ \$0_cabine;
#X obj 23 570 delwrite~ \$0_cabine 20000;
#X obj 224 260 array get \$0_melodyTable;
#X obj 286 134 array define -k -yrange -9 7 \$0_melodyTable;
#A 0 0 0 0 -6.54667 -6.54667 -6.54667 -6.54667 0 0 0 -4.57334 0 0 2.30667
2.30667 0 0 0 0 0 0 0 0 0 0 4.49334 4.62667 4.76001 4.76001 4.76001
4.70667 0 0 0 0 0 0 0 4.44 4.54667 4.65334 4.70667 4.76001 4.76001
4.76001 4.81334 4.97334 5.13335 0 0 6.46667 6.46667 6.36 6.36 -7.77333
-7.77333 -7.77333 -7.77333 -7.77333 -7.77333 0 0 0 0 0 0 0 0 0 0 0
0 0 0 -7.88 -7.88 -7.88 4.3867 4.76004 4.92004 -7.88 -7.77333 0 0 0
0 0 0 4.65333 4.65333 4.65333 4.65333 0 0 0 0 0 0 0 0;
#X connect 0 0 3 0;
#X connect 1 0 2 0;
#X connect 2 0 29 0;
#X connect 3 0 1 0;
#X connect 4 0 3 0;
#X connect 4 1 3 1;
#X connect 5 0 15 0;
#X connect 6 0 4 0;
#X connect 7 0 5 0;
#X connect 8 0 6 0;
#X connect 9 0 1 1;
#X connect 10 0 32 0;
#X connect 11 0 8 0;
#X connect 12 0 23 0;
#X connect 13 0 30 0;
#X connect 14 0 31 0;
#X connect 15 0 16 0;
#X connect 16 0 17 0;
#X connect 17 0 18 0;
#X connect 18 0 10 0;
#X connect 18 0 21 0;
#X connect 19 0 13 0;
#X connect 20 0 33 0;
#X connect 21 0 19 0;
#X connect 22 0 24 0;
#X connect 24 0 25 0;
#X connect 24 1 19 1;
#X connect 24 2 20 0;
#X connect 24 3 27 0;
#X connect 24 4 7 0;
#X connect 25 0 15 1;
#X connect 25 1 18 1;
#X connect 26 0 24 0;
#X connect 27 0 28 0;
#X connect 28 0 0 0;
#X connect 28 0 2 1;
#X connect 28 0 9 0;
#X connect 29 0 12 0;
#X connect 29 0 31 0;
#X connect 30 0 12 0;
#X connect 30 0 14 0;
#X connect 32 0 11 0;
