#N canvas 328 162 902 588 10;
#X obj 35 567 dac~;
#X obj 35 534 hip~ 10;
#X floatatom 36 244 5 0 100 0 - - -;
#X obj 182 192 openpanel;
#X obj 182 166 bng 15 250 50 0 empty empty empty 17 7 0 10 -262144
-1 -1;
#X text 199 168 if the playlist external is missing;
#X text 151 222 pos (percent);
#X text 36 73 2015 martin brinkmann;
#N canvas 391 31 1024 847 small_paul1 0;
#X obj 3 540 outlet~;
#X obj -111 6 inlet;
#X symbolatom 2 17 49 0 0 0 - - -;
#X obj 346 -138 inlet;
#X text 381 -137 <-filename;
#X msg 415 -31 set symbol \$1;
#X obj 349 -104 t b a;
#X msg 409 -4 symbol /Users/mparker/Desktop/sonikebanaSound/Sonikebana_creepyMetallurgy_02_dirge.wav
;
#X obj 382 166 soundfiler;
#X obj 388 55 t b a;
#X obj 383 112 pack f s;
#X obj 382 83 float;
#X obj 267 -84 loadbang;
#X msg 382 139 read -resize \$2 \$1spsample;
#X obj 352 293 / 100;
#X obj 360 260 - 8192;
#X obj -6 411 *;
#X msg 207 175 16384;
#X msg 171 175 8192;
#X obj 4 450 abs_small_paul;
#X msg 134 174 4096;
#X msg 248 174 32768;
#X msg 95 169 2048;
#X msg 61 169 1024;
#X msg 289 173 65536;
#X obj 113 2 hradio 13 1 1 8 empty empty ws -13 7 0 10 -262144 -1 -1
2;
#X obj 41 34 nbx 5 14 1 256 0 1 empty empty x -7 7 0 10 -262144 -1
-1 61 256;
#X obj 2 34 bng 13 250 50 0 empty empty empty 17 7 0 10 -4034 -1 -1
;
#X obj 18 34 bng 13 250 50 0 empty empty empty 17 7 0 10 -228856 -1
-1;
#X obj -97 369 clip 0 100;
#X floatatom 98 34 8 0 100 0 - - -;
#X text -88 -90 2015 martin brinkmann;
#X obj 42 75 *;
#X obj 404 199 / 44.1;
#X text -109 -14 pos;
#X obj 97 -33 change;
#X obj 79 -95 metro 100;
#X obj 70 -64 f;
#X text -88 -126 small/siple implementation of paul nascas 'extreme
timestretching';
#X obj 283 226 f;
#X obj 173 34 nbx 5 14 -36 36 0 1 empty empty tp -15 7 0 10 -262144
-1 -1 2 256;
#N canvas 1 77 450 300 btoggle 0;
#X obj 122 29 inlet;
#X obj 104 213 outlet;
#X obj 163 213 outlet;
#X obj 130 104 int;
#X obj 91 151 + 1;
#X obj 152 144 mod 2;
#X obj 123 56 t b;
#X obj 129 185 select 0 1;
#X msg 179 54 0;
#X obj 238 22 inlet;
#X connect 0 0 6 0;
#X connect 3 0 4 0;
#X connect 3 0 7 0;
#X connect 4 0 5 0;
#X connect 5 0 3 1;
#X connect 6 0 3 0;
#X connect 7 0 1 0;
#X connect 7 1 2 0;
#X connect 8 0 3 1;
#X connect 9 0 8 0;
#X restore -95 33 pd btoggle;
#X msg -42 205 \$1 \$2;
#X text 56 256 play;
#X text 8 199 continue;
#X obj 92 59 / 100;
#X obj 13 109 *;
#X obj 89 129 -;
#X obj 86 81 t b f;
#X msg 79 105 1;
#X obj -38 302 line;
#X msg -93 172 set \$1;
#X obj -93 149 f;
#X obj -42 183 pack f f;
#X msg -52 61 100;
#X obj 41 51 t b f;
#X obj 248 35 tgl 13 1 empty empty pnd 17 7 0 10 -262144 -1 -1 1 1
;
#X obj -42 142 *;
#X obj 323 48 == 0;
#X obj 178 59 select 0 1 2 3 4 5 6 7;
#X msg 334 173 131072;
#X obj 188 271 select 0 100;
#X obj -2 220 f;
#X msg 27 174 100;
#X obj -15 63 t b b;
#X obj 178 220 change;
#X obj 143 300 t b b;
#X msg 128 336 0;
#X obj 9 300 print;
#X msg -2 264 \$3 \, \$1 \$2;
#X obj -3 243 pack f f f;
#X msg 164 338 100;
#X msg 70 216 0;
#X obj 185 246 spigot;
#X obj 221 2 nbx 5 13 0 131072 0 0 empty empty empty -7 7 0 10 -262144
-1 -1 4096 256;
#X obj 578 274 inlet~ noiseSource;
#X connect 1 0 29 0;
#X connect 1 0 52 0;
#X connect 3 0 6 0;
#X connect 5 0 7 0;
#X connect 6 0 7 0;
#X connect 6 1 5 0;
#X connect 7 0 2 0;
#X connect 7 0 9 0;
#X connect 8 0 15 0;
#X connect 8 0 33 0;
#X connect 9 0 11 0;
#X connect 9 1 10 1;
#X connect 10 0 13 0;
#X connect 11 0 10 0;
#X connect 12 0 7 0;
#X connect 12 0 36 0;
#X connect 13 0 8 0;
#X connect 14 0 16 1;
#X connect 15 0 14 0;
#X connect 16 0 19 0;
#X connect 17 0 39 0;
#X connect 18 0 39 0;
#X connect 19 0 0 0;
#X connect 19 1 11 1;
#X connect 20 0 39 0;
#X connect 21 0 39 0;
#X connect 22 0 39 0;
#X connect 23 0 39 0;
#X connect 24 0 39 0;
#X connect 25 0 59 0;
#X connect 26 0 55 0;
#X connect 27 0 41 1;
#X connect 27 0 64 0;
#X connect 28 0 41 0;
#X connect 29 0 16 0;
#X connect 29 0 37 1;
#X connect 30 0 45 0;
#X connect 30 0 52 1;
#X connect 30 0 65 0;
#X connect 32 0 46 1;
#X connect 32 0 70 1;
#X connect 33 0 32 1;
#X connect 35 0 30 0;
#X connect 36 0 37 0;
#X connect 37 0 35 0;
#X connect 39 0 15 1;
#X connect 39 0 19 1;
#X connect 39 0 74 0;
#X connect 40 0 19 2;
#X connect 41 0 52 0;
#X connect 41 1 54 0;
#X connect 42 0 50 0;
#X connect 45 0 48 0;
#X connect 46 0 53 1;
#X connect 47 0 46 0;
#X connect 48 0 49 0;
#X connect 48 1 47 1;
#X connect 49 0 47 0;
#X connect 50 0 16 0;
#X connect 50 0 29 0;
#X connect 51 0 50 0;
#X connect 52 0 51 0;
#X connect 53 0 42 0;
#X connect 54 0 57 0;
#X connect 55 0 46 0;
#X connect 55 1 32 0;
#X connect 56 0 58 0;
#X connect 56 0 73 1;
#X connect 57 0 53 0;
#X connect 58 0 57 1;
#X connect 59 0 23 0;
#X connect 59 1 22 0;
#X connect 59 2 20 0;
#X connect 59 3 18 0;
#X connect 59 4 17 0;
#X connect 59 5 21 0;
#X connect 59 6 24 0;
#X connect 59 7 60 0;
#X connect 60 0 39 0;
#X connect 61 0 27 0;
#X connect 61 1 66 0;
#X connect 62 0 70 0;
#X connect 63 0 62 1;
#X connect 64 0 62 0;
#X connect 64 1 63 0;
#X connect 64 1 72 0;
#X connect 65 0 73 0;
#X connect 66 0 62 0;
#X connect 66 1 67 0;
#X connect 66 1 71 0;
#X connect 67 0 62 1;
#X connect 69 0 50 0;
#X connect 70 0 69 0;
#X connect 71 0 70 2;
#X connect 72 0 70 2;
#X connect 73 0 61 0;
#X connect 75 0 19 3;
#X coords 0 -1 1 1 300 50 1 0 0;
#X restore 35 265 pd small_paul1;
#X obj 36 111 / 360;
#X floatatom 36 88 5 0 0 0 - - -;
#X obj 36 169 line;
#X obj 105 433 line~;
#X obj 104 455 delread4~ stretcher;
#X floatatom 104 387 5 0 0 0 - - -;
#X obj 36 189 + 0, f 10;
#X floatatom 94 166 5 0 0 0 - - -;
#X obj 105 525 hip~ 0;
#X obj 105 503 lop~ 20000;
#X msg 105 409 \$1 43;
#X obj 105 476 *~ 0.56;
#X obj 105 558 delwrite~ stretcher 10000;
#X obj 466 178 *~;
#X obj 552 131 osc~ 0.1;
#X obj 552 156 *~ 12;
#X floatatom 465 107 5 0 0 0 - - -;
#X floatatom 552 106 5 0 0 0 - - -;
#X floatatom 615 134 5 0 0 0 - - -;
#X obj 466 210 phasor~ 3;
#X obj 36 129 * 10, f 9;
#X floatatom 86 107 5 0 0 0 - - -;
#X obj 465 131 cos~ 0.1;
#X msg 36 149 \$1 1234;
#X obj 211 32 env~ 4096;
#X obj 211 53 * 0.01;
#X obj 212 74 * 2;
#X obj 213 96 - 1;
#X obj 207 125 + 0;
#X obj 211 11 osc~ 0.01;
#X obj 466 237 *~ 2;
#X obj 418 389 lop~;
#X floatatom 299 26 5 0 0 0 - - -;
#X connect 1 0 0 0;
#X connect 1 0 0 1;
#X connect 2 0 8 0;
#X connect 3 0 8 1;
#X connect 4 0 3 0;
#X connect 8 0 1 0;
#X connect 8 0 21 0;
#X connect 9 0 29 0;
#X connect 10 0 9 0;
#X connect 11 0 15 0;
#X connect 12 0 13 0;
#X connect 13 0 20 0;
#X connect 13 0 1 0;
#X connect 14 0 19 0;
#X connect 15 0 37 1;
#X connect 16 0 15 1;
#X connect 17 0 21 0;
#X connect 18 0 17 0;
#X connect 19 0 12 0;
#X connect 20 0 18 0;
#X connect 22 0 28 0;
#X connect 23 0 24 0;
#X connect 24 0 22 1;
#X connect 25 0 31 0;
#X connect 26 0 23 0;
#X connect 27 0 24 1;
#X connect 28 0 39 0;
#X connect 29 0 32 0;
#X connect 30 0 29 1;
#X connect 31 0 22 0;
#X connect 32 0 11 0;
#X connect 33 0 34 0;
#X connect 34 0 35 0;
#X connect 35 0 36 0;
#X connect 36 0 37 0;
#X connect 37 0 2 0;
#X connect 38 0 33 0;
#X connect 39 0 8 2;
#X connect 41 0 38 0;
